SplineFontDB: 3.0
FontName: AnkaCoder-C87-Skel
FullName: Anna Shugol/Coder Condensed Regular
FamilyName: Anka/Coder Condensed
Weight: Book
Copyright: Copyright (c) 2010, Andrey Makarov (makarov@bmstu.ru, mka-at-mailru@mail.ru),\nwith Reserved Font Name Anka/Coder Condensed.\n---------------------------------\nThe Anka/* are members of Anna Shugol name font family; March 2010
Version: 001.000
StrokeWidth: 100
ItalicAngle: 0
UnderlinePosition: -292
UnderlineWidth: 50
Ascent: 1638
Descent: 410
LayerCount: 2
Layer: 0 0 "Back"  1
Layer: 1 0 "Fore"  0
StrokedFont: 1
NeedsXUIDChange: 1
XUID: [1021 77 1780377344 11926472]
UseXUID: 1
BaseHoriz: 0
FSType: 8
OS2Version: 1
OS2_WeightWidthSlopeOnly: 0
OS2_UseTypoMetrics: 1
CreationTime: 1260467214
ModificationTime: 1268390587
PfmFamily: 49
TTFWeight: 400
TTFWidth: 4
LineGap: 0
VLineGap: 0
Panose: 2 11 5 9 2 5 2 2 2 4
OS2TypoAscent: 0
OS2TypoAOffset: 1
OS2TypoDescent: 0
OS2TypoDOffset: 1
OS2TypoLinegap: 0
OS2WinAscent: 0
OS2WinAOffset: 1
OS2WinDescent: 0
OS2WinDOffset: 1
HheadAscent: 0
HheadAOffset: 1
HheadDescent: 0
HheadDOffset: 1
OS2SubXSize: 553
OS2SubYSize: 1229
OS2SubXOff: 0
OS2SubYOff: 283
OS2SupXSize: 553
OS2SupYSize: 1229
OS2SupXOff: 0
OS2SupYOff: 977
OS2StrikeYSize: 102
OS2StrikeYPos: 530
OS2FamilyClass: 1285
OS2Vendor: 'AVM1'
OS2CodePages: 40000097.cfd60000
OS2UnicodeRanges: 800002ef.000079eb.00000000.00000000
DEI: 91125
ShortTable: maxp 16
  0
  0
  0
  0
  0
  0
  0
  2
  1
  0
  9
  0
  256
  0
  0
  0
EndShort
TtTable: prep
PUSHW_1
 511
SCANCTRL
SVTCA[y-axis]
MPPEM
PUSHB_1
 8
LT
IF
PUSHB_2
 1
 1
INSTCTRL
EIF
PUSHB_2
 70
 6
CALL
IF
POP
PUSHB_1
 16
EIF
MPPEM
PUSHB_1
 20
GT
IF
POP
PUSHB_1
 128
EIF
SCVTCI
PUSHB_1
 6
CALL
NOT
IF
EIF
EndTTInstrs
TtTable: fpgm
PUSHB_1
 0
FDEF
PUSHB_1
 0
SZP0
MPPEM
PUSHB_1
 42
LT
IF
PUSHB_1
 74
SROUND
EIF
PUSHB_1
 0
SWAP
MIAP[rnd]
RTG
PUSHB_1
 6
CALL
IF
RTDG
EIF
MPPEM
PUSHB_1
 42
LT
IF
RDTG
EIF
DUP
MDRP[rp0,rnd,grey]
PUSHB_1
 1
SZP0
MDAP[no-rnd]
RTG
ENDF
PUSHB_1
 1
FDEF
DUP
DUP

StartChar: exclam
Encoding: 33 33 1
Width: 1075
VWidth: 1708
GlyphClass: 2
Flags: W
HStem: -87 236<440.831 634.094>
VStem: 413 249<-57.6871 120.037 974.824 1386.02> 455 168<384 842.752>
LayerCount: 2
Fore
SplineSet
662 31 m 0xc0
 662 -38 603 -87 537 -87 c 0
 473 -87 413 -37 413 31 c 0
 413 93 467 149 537 149 c 0
 602 149 662 101 662 31 c 0xc0
534 1429 m 0
 593 1429 651 1377 651 1280 c 1
 623 384 l 1
 455 384 l 1xa0
 427 1281 l 1
 427 1377 481 1429 534 1429 c 0
EndSplineSet
EndChar

StartChar: quotedbl
Encoding: 34 34 2
Width: 1075
VWidth: 1708
GlyphClass: 2
Flags: W
HStem: 1406 20G<339 387.5 769 817.5>
LayerCount: 2
Fore
SplineSet
306 1069 m 2
 291 1044 268 1032 248 1032 c 3
 221 1032 198 1053 198 1089 c 3
 198 1096 198 1105 200 1113 c 2
 262 1358 l 2
 272 1398 318 1426 360 1426 c 3
 415 1426 446 1377 446 1331 c 3
 446 1315 442 1299 434 1286 c 2
 306 1069 l 2
736 1069 m 2
 721 1044 700 1032 680 1032 c 3
 653 1032 628 1053 628 1089 c 3
 628 1096 630 1105 632 1113 c 2
 692 1358 l 2
 702 1398 748 1426 790 1426 c 3
 845 1426 876 1377 876 1331 c 3
 876 1315 872 1299 864 1286 c 2
 736 1069 l 2
EndSplineSet
EndChar

StartChar: numbersign
Encoding: 35 35 3
Width: 1075
VWidth: 1708
GlyphClass: 2
Flags: MW
LayerCount: 2
Fore
SplineSet
-23 0 m 5
 183 1350 l 5
 1099 1350 l 5
 893 0 l 5
 -23 0 l 5
5 973 m 29
 1071 973 l 29
5 416 m 29
 1071 416 l 29
866 1425 m 29
 632 -99 l 29
439 1425 m 29
 204 -99 l 29
EndSplineSet
EndChar

StartChar: dollar
Encoding: 36 36 4
Width: 1075
VWidth: 2334
GlyphClass: 2
Flags: MW
LayerCount: 2
Fore
SplineSet
538 1494 m 25
 538 -93 l 25
166 325 m 0
 166 139 345 50 528 50 c 10
 548 50 l 18
 726 50 884 183 884 337 c 10
 884 367 l 18
 884 503 822 628 679 696 c 6
 375 830 l 6
 280 872 222 957 222 1033 c 2
 222 1063 l 2
 222 1250 355 1350 535 1350 c 10
 543 1350 l 18
 696 1350 824 1304 865 1177 c 0
 878 1136 879 1093 879 1063 c 0
EndSplineSet
EndChar

StartChar: percent
Encoding: 37 37 5
Width: 1075
VWidth: 1708
GlyphClass: 2
Flags: MW
LayerCount: 2
Fore
SplineSet
109 76 m 29
 967 1325 l 29
296 1333 m 7
 402 1333 456 1246 456 1145 c 7
 456 1048 402 957 296 957 c 7
 192 957 136 1044 136 1145 c 7
 136 1248 193 1333 296 1333 c 7
780 439 m 7
 886 439 940 353 940 252 c 7
 940 154 886 64 780 64 c 7
 676 64 620 151 620 252 c 7
 620 355 677 439 780 439 c 7
EndSplineSet
EndChar

StartChar: ampersand
Encoding: 38 38 6
Width: 1075
VWidth: 2334
GlyphClass: 2
Flags: MW
LayerCount: 2
Fore
SplineSet
953 10 m 5
 464 811 l 6
 403 897 316 1036 316 1140 c 6
 316 1162 l 6
 316 1278 394 1350 528 1350 c 14
 550 1350 l 22
 689 1350 775 1271 775 1157 c 6
 775 1098 l 6
 775 1049 704 973 662 939 c 6
 310 639 l 5
 225 544 166 471 166 367 c 14
 166 337 l 22
 166 151 323 50 501 50 c 14
 522 50 l 22
 667 50 768 121 822 240 c 6
 967 590 l 4
EndSplineSet
EndChar

StartChar: quotesingle
Encoding: 39 39 7
Width: 1075
VWidth: 1708
GlyphClass: 2
Flags: W
HStem: 1406 20G<555 603.5>
LayerCount: 2
Fore
SplineSet
522 1069 m 6
 507 1044 484 1032 464 1032 c 7
 437 1032 414 1053 414 1089 c 7
 414 1096 414 1105 416 1113 c 6
 478 1358 l 6
 488 1398 534 1426 576 1426 c 7
 631 1426 662 1377 662 1331 c 7
 662 1315 658 1299 650 1286 c 6
 522 1069 l 6
EndSplineSet
EndChar

StartChar: parenleft
Encoding: 40 40 8
Width: 1075
VWidth: 1708
GlyphClass: 2
Flags: MW
LayerCount: 2
Fore
SplineSet
860 1480 m 21
 626 1352 410 1055 410 722 c 31
 410 375 626 81 860 -80 c 13
EndSplineSet
EndChar

StartChar: parenright
Encoding: 41 41 9
Width: 1075
VWidth: 1708
GlyphClass: 2
Flags: MW
LayerCount: 2
Fore
SplineSet
215 1480 m 21
 450 1352 666 1055 666 722 c 31
 666 375 450 81 215 -80 c 13
EndSplineSet
EndChar

StartChar: asterisk
Encoding: 42 42 10
Width: 1075
VWidth: 1708
GlyphClass: 2
Flags: MW
LayerCount: 2
Fore
SplineSet
323.459 304.709 m 29
 538 600 l 29
 538 965 l 29
538 600 m 29
 752.541 304.709 l 29
885.135 712.791 m 29
 538 600 l 29
 190.865 712.791 l 29
EndSplineSet
EndChar

StartChar: plus
Encoding: 43 43 11
Width: 1075
VWidth: 1708
GlyphClass: 2
Flags: MW
LayerCount: 2
Fore
SplineSet
538 157 m 29
 538 1011 l 29
127 600 m 29
 949 600 l 29
EndSplineSet
EndChar

StartChar: comma
Encoding: 44 44 12
Width: 1075
VWidth: 1947
GlyphClass: 2
Flags: MW
LayerCount: 2
Fore
SplineSet
635 29 m 21
 634 -103 616 -289 386 -315 c 13
 371 -260 l 21
 440 -235 582 -138 479 -49 c 13
 635 29 l 21
634.625 29 m 4
 634.625 -22.75 594.875 -68.5 537.125 -68.5 c 4
 481.625 -68.5 440.375 -23.5 440.375 29 c 4
 440.375 80 478.625 126.5 537.125 126.5 c 4
 594.125 126.5 634.625 81.5 634.625 29 c 4
EndSplineSet
EndChar

StartChar: hyphen
Encoding: 45 45 13
Width: 1075
VWidth: 1708
GlyphClass: 2
Flags: MW
LayerCount: 2
Fore
SplineSet
127 600 m 29
 949 600 l 29
EndSplineSet
EndChar

StartChar: period
Encoding: 46 46 14
Width: 1075
VWidth: 1708
GlyphClass: 2
Flags: MW
LayerCount: 2
Fore
SplineSet
635 29 m 0
 635 -23 595 -68 537 -68 c 0
 482 -68 440 -24 440 29 c 0
 440 80 479 126 537 126 c 0
 594 126 635 82 635 29 c 0
EndSplineSet
EndChar

StartChar: slash
Encoding: 47 47 15
Width: 1075
VWidth: 1708
GlyphClass: 2
Flags: MW
LayerCount: 2
Fore
SplineSet
215 -25 m 29
 860 1425 l 29
EndSplineSet
EndChar

StartChar: zero
Encoding: 48 48 16
Width: 1075
VWidth: 1708
GlyphClass: 2
Flags: MW
LayerCount: 2
Fore
SplineSet
5 1476 m 1
 966 1476 l 1
 1071 1218 l 1
 1071 -51 l 1
 114 -51 l 1
 5 187 l 1
 5 1476 l 1
-19 -25 m 25
 1094 1425 l 25
538 1350 m 3
 824 1350 872 1057 872 732 c 3
 872 337 817 50 538 50 c 3
 250 50 204 416 204 732 c 3
 204 1057 255 1350 538 1350 c 3
EndSplineSet
EndChar

StartChar: one
Encoding: 49 49 17
Width: 1075
VWidth: 1708
GlyphClass: 2
Flags: MW
LayerCount: 2
Fore
SplineSet
5 335 m 5
 370 767 l 5
 370 938 l 5
 279 1024 l 5
 615 1425 l 5
 1071 1425 l 5
 1071 -25 l 5
 5 -25 l 5
 5 335 l 5
652 0 m 29
 652 1350 l 29
 176 983 l 29
EndSplineSet
EndChar

StartChar: two
Encoding: 50 50 18
Width: 1075
VWidth: 2334
GlyphClass: 2
Flags: MW
LayerCount: 2
Fore
SplineSet
167 -25 m 5
 167 525 l 5
 109 546 l 5
 109 1479 l 5
 1071 1479 l 5
 1071 -25 l 5
 167 -25 l 5
228 1181 m 5
 281 1290 350 1350 528 1350 c 14
 548 1350 l 22
 756 1350 860 1242 860 1064 c 14
 860 1024 l 22
 860 998 820 929 755 854 c 6
 372 384 l 6
 297 267 249 180 215 75 c 5
 967 75 l 13
EndSplineSet
EndChar

StartChar: three
Encoding: 51 51 19
Width: 1075
VWidth: 2334
GlyphClass: 2
Flags: MW
LayerCount: 2
Fore
SplineSet
236 1190 m 1
 283 1296 405 1350 528 1350 c 10
 548 1350 l 18
 713 1350 808 1218 808 1063 c 10
 808 1022 l 18
 808 944 704 809 550 809 c 1
 354 809 l 9
 548 809 l 18
 756 809 860 641 860 417 c 10
 860 397 l 18
 860 145 756 50 548 50 c 10
 528 50 l 18
 387 50 215 124 215 305 c 1
EndSplineSet
EndChar

StartChar: four
Encoding: 52 52 20
Width: 1075
VWidth: 1708
GlyphClass: 2
Flags: MW
LayerCount: 2
Fore
SplineSet
109 1425 m 5
 967 1425 l 5
 967 0 l 5
 109 0 l 5
 109 1425 l 5
782 0 m 29
 782 1352 l 29
 196 427 l 29
 965 427 l 29
EndSplineSet
EndChar

StartChar: five
Encoding: 53 53 21
Width: 1075
VWidth: 2334
GlyphClass: 2
Flags: MW
LayerCount: 2
Fore
SplineSet
5 1425 m 5
 1071 1425 l 5
 1071 -54 l 5
 5 -54 l 5
 5 141 l 5
 433 393 l 5
 433 556 l 5
 5 845 l 5
 5 1425 l 5
900 1325 m 5
 320 1325 l 5
 241 707 l 5
215 495 m 5
 215 746 399 879 528 879 c 14
 548 879 l 22
 756 879 860 711 860 487 c 14
 860 427 l 22
 860 169 756 50 548 50 c 14
 470 50 l 22
 338 50 158 156 158 337 c 5
EndSplineSet
EndChar

StartChar: six
Encoding: 54 54 22
Width: 1075
VWidth: 2334
GlyphClass: 2
Flags: MW
LayerCount: 2
Fore
SplineSet
215 432 m 29
 215 974 l 21
 217 1169 320 1350 528 1350 c 14
 548 1350 l 22
 694 1350 789 1321 833 1232 c 5
215 487 m 14
 215 427 l 22
 215 169 354 50 528 50 c 14
 548 50 l 22
 756 50 860 201 860 427 c 14
 860 487 l 22
 860 743 756 879 548 879 c 14
 528 879 l 22
 320 879 215 711 215 487 c 14
EndSplineSet
EndChar

StartChar: seven
Encoding: 55 55 23
Width: 1075
VWidth: 1708
GlyphClass: 2
Flags: MW
LayerCount: 2
Fore
SplineSet
5 1485 m 5
 967 1485 l 5
 967 0 l 5
 5 0 l 5
 5 1485 l 5
109 1325 m 29
 890 1325 l 21
 621 861 400 427 303 -45 c 13
EndSplineSet
EndChar

StartChar: eight
Encoding: 56 56 24
Width: 1075
VWidth: 2334
GlyphClass: 2
Flags: MW
LayerCount: 2
Fore
SplineSet
548 1350 m 14
 528 1350 l 22
 372 1350 268 1253 268 1096 c 6
 268 1024 l 6
 268 944 372 809 526 809 c 14
 550 809 l 22
 704 809 808 912 808 1023 c 14
 808 1095 l 22
 808 1282 704 1350 548 1350 c 14
215 417 m 14
 215 365 l 22
 215 147 354 50 528 50 c 14
 548 50 l 22
 756 50 860 145 860 365 c 14
 860 417 l 22
 860 673 756 809 548 809 c 14
 528 809 l 22
 320 809 215 641 215 417 c 14
EndSplineSet
EndChar

StartChar: nine
Encoding: 57 57 25
Width: 1075
VWidth: 2334
GlyphClass: 2
Flags: MW
LayerCount: 2
Fore
SplineSet
860 957 m 29
 860 411 l 21
 860 169 756 50 548 50 c 14
 528 50 l 22
 382 50 286 80 243 168 c 5
860 930 m 22
 860 674 756 553 548 553 c 14
 528 553 l 22
 320 585 215 706 215 930 c 14
 215 1005 l 22
 215 1248 320 1350 528 1350 c 14
 548 1350 l 22
 719 1350 860 1231 860 1005 c 14
 860 930 l 22
EndSplineSet
EndChar

StartChar: less
Encoding: 60 60 28
Width: 1075
VWidth: 1708
GlyphClass: 2
Flags: MW
LayerCount: 2
Fore
SplineSet
167 1364 m 5
 909 1364 l 5
 909 -110 l 5
 167 -110 l 5
 167 1364 l 5
979 1192 m 29
 259 600 l 29
 979 8 l 29
EndSplineSet
EndChar

StartChar: equal
Encoding: 61 61 29
Width: 1075
VWidth: 1708
GlyphClass: 2
Flags: MW
LayerCount: 2
Fore
SplineSet
127 842 m 29
 949 842 l 29
127 400 m 29
 949 400 l 29
EndSplineSet
EndChar

StartChar: greater
Encoding: 62 62 30
Width: 1075
VWidth: 1708
GlyphClass: 2
Flags: MW
LayerCount: 2
Fore
SplineSet
167 1364 m 5
 909 1364 l 5
 909 -110 l 5
 167 -110 l 5
 167 1364 l 5
97 8 m 29
 817 600 l 29
 97 1192 l 29
EndSplineSet
EndChar

StartChar: question
Encoding: 63 63 31
Width: 1075
VWidth: 1708
GlyphClass: 2
Flags: MW
LayerCount: 2
Fore
SplineSet
662 32 m 0xe0
 662 -37 603 -86 537 -86 c 0
 473 -86 413 -36 413 32 c 0
 413 94 467 150 537 150 c 0
 602 150 662 102 662 32 c 0xe0
538 340 m 25
 538 480 l 18
 538 553 570 618 621 673 c 2
 771 835 l 2
 825 892 860 954 860 1024 c 10
 860 1095 l 18
 860 1242 756 1350 548 1350 c 10
 528 1350 l 18
 320 1350 217 1242 215 1095 c 9
EndSplineSet
EndChar

StartChar: at
Encoding: 64 64 32
Width: 1075
VWidth: 1708
GlyphClass: 2
Flags: MW
LayerCount: 2
Fore
SplineSet
711 1000 m 6
 711 1000 830 1001 907 1001 c 29
 907 639 l 6
 907 543 827 435 711 435 c 7
 559 435 511 573 511 734 c 7
 511 895 566 1000 711 1000 c 6
860 130 m 5
 775 55 640 50 538 50 c 7
 319 50 135 279 135 732 c 7
 135 1056 255 1350 538 1350 c 7
 765 1350 907 1242 907 1065 c 6
 907 340 l 21
EndSplineSet
EndChar

StartChar: B
Encoding: 66 66 33
Width: 1075
VWidth: 1947
GlyphClass: 2
Flags: MW
LayerCount: 2
Fore
SplineSet
860 337 m 10
 860 485 l 18
 860 696 756 787 548 787 c 10
 215 787 l 25
 491 787 l 2
 704 787 803 844 803 1025 c 2
 803 1095 l 2
 803 1278 709 1325 491 1325 c 2
 215 1325 l 1
 215 75 l 1
 548 75 l 2
 756 75 860 156 860 337 c 10
EndSplineSet
EndChar

StartChar: C
Encoding: 67 67 34
Width: 1075
VWidth: 1947
GlyphClass: 2
Flags: MW
LayerCount: 2
Fore
SplineSet
852 315 m 5
 807 154 721 50 568 50 c 6
 532 50 l 6
 269 50 204 380 204 696 c 6
 204 763 l 6
 204 1063 264 1350 531 1350 c 6
 568 1350 l 6
 738 1350 824 1245 864 1080 c 5
EndSplineSet
EndChar

StartChar: D
Encoding: 68 68 35
Width: 1075
VWidth: 1947
GlyphClass: 2
Flags: MW
LayerCount: 2
Fore
SplineSet
538 1325 m 6
 811 1325 872 1082 872 775 c 6
 872 671 l 6
 872 362 800 75 538 75 c 6
 215 75 l 5
 215 1325 l 5
 538 1325 l 6
EndSplineSet
EndChar

StartChar: E
Encoding: 69 69 36
Width: 1075
VWidth: 1708
GlyphClass: 2
Flags: MW
LayerCount: 2
Fore
SplineSet
860 787 m 29
 215 787 l 29
967 1325 m 29
 215 1325 l 29
 215 76 l 29
 967 76 l 29
EndSplineSet
EndChar

StartChar: F
Encoding: 70 70 37
Width: 1075
VWidth: 1708
GlyphClass: 2
Flags: MW
LayerCount: 2
Fore
SplineSet
860 787 m 29
 215 787 l 29
967 1325 m 29
 215 1325 l 29
 215 76 l 29
EndSplineSet
EndChar

StartChar: G
Encoding: 71 71 38
Width: 1075
VWidth: 1947
GlyphClass: 2
Flags: MW
LayerCount: 2
Fore
SplineSet
864 1080 m 5
 824 1245 738 1350 568 1350 c 6
 531 1350 l 6
 264 1350 204 1063 204 763 c 6
 204 696 l 6
 204 380 269 50 532 50 c 6
 568 50 l 6
 721 50 827 152 860 257 c 5
 860 617 l 5
 588 617 l 29
EndSplineSet
EndChar

StartChar: H
Encoding: 72 72 39
Width: 1075
VWidth: 1947
GlyphClass: 2
Flags: MW
LayerCount: 2
Fore
SplineSet
215 732 m 29
 860 732 l 29
860 1400 m 29
 860 0 l 29
215 1400 m 29
 215 0 l 29
EndSplineSet
EndChar

StartChar: I
Encoding: 73 73 40
Width: 1075
VWidth: 1947
GlyphClass: 2
Flags: MW
LayerCount: 2
Fore
SplineSet
109 75 m 29
 967 75 l 29
538 92 m 21
109 1325 m 29
 967 1325 l 5
538 1326 m 5
 538 75 l 13
EndSplineSet
EndChar

StartChar: J
Encoding: 74 74 41
Width: 1075
VWidth: 1947
GlyphClass: 2
Flags: MW
LayerCount: 2
Fore
SplineSet
176 208 m 5
 207 92 298 50 424 50 c 14
 444 50 l 22
 600 50 704 157 704 337 c 14
 704 1325 l 29
373 1325 m 29
 990 1325 l 29
EndSplineSet
EndChar

StartChar: K
Encoding: 75 75 42
Width: 1075
VWidth: 1947
GlyphClass: 2
Flags: MW
LayerCount: 2
Fore
SplineSet
5 1400 m 5
 1071 1400 l 5
 1071 0 l 5
 5 0 l 5
 5 1400 l 5
967 -141 m 29
 449 797 l 29
952 1524 m 29
 215 485 l 29
217 1400 m 29
 217 0 l 29
EndSplineSet
EndChar

StartChar: L
Encoding: 76 76 43
Width: 1075
VWidth: 1947
GlyphClass: 2
Flags: MW
LayerCount: 2
Fore
SplineSet
215 1400 m 29
 215 76 l 29
 967 76 l 29
EndSplineSet
EndChar

StartChar: M
Encoding: 77 77 44
Width: 1075
VWidth: 1947
GlyphClass: 2
Flags: MW
LayerCount: 2
Fore
SplineSet
5 1 m 5
 5 1401 l 5
 1071 1401 l 5
 1071 1 l 5
 711 1 l 5
 710 211 l 5
 372 211 l 5
 372 1 l 5
 5 1 l 5
116 -74 m 29
 239 1402 l 29
 538 352 l 29
 837 1402 l 29
 960 -75 l 29
EndSplineSet
EndChar

StartChar: N
Encoding: 78 78 45
Width: 1075
VWidth: 1947
GlyphClass: 2
Flags: MW
LayerCount: 2
Fore
SplineSet
5 1400 m 5
 1071 1400 l 5
 1071 0 l 5
 5 0 l 5
 5 1400 l 5
215 0 m 29
 215 1350 l 29
 860 49 l 29
 860 1400 l 29
EndSplineSet
EndChar

StartChar: O
Encoding: 79 79 46
Width: 1075
VWidth: 1947
GlyphClass: 2
Flags: MW
LayerCount: 2
Fore
SplineSet
545 1350 m 6
 814 1350 872 1062 872 765 c 6
 872 696 l 6
 872 380 807 51 545 50 c 6
 532 50 l 6
 269 50 204 380 204 696 c 6
 204 763 l 6
 204 1063 264 1350 531 1350 c 6
 545 1350 l 6
EndSplineSet
EndChar

StartChar: P
Encoding: 80 80 47
Width: 1075
VWidth: 1947
GlyphClass: 2
Flags: MW
LayerCount: 2
Fore
SplineSet
215 717 m 29
 548 717 l 6
 756 717 860 791 860 972 c 6
 860 1063 l 6
 860 1259 767 1325 548 1325 c 6
 215 1325 l 5
 215 0 l 5
EndSplineSet
EndChar

StartChar: Q
Encoding: 81 81 48
Width: 1075
VWidth: 1947
GlyphClass: 2
Flags: MW
LayerCount: 2
Fore
SplineSet
545 1350 m 6
 814 1350 872 1062 872 765 c 6
 872 696 l 6
 872 380 807 51 545 50 c 6
 532 50 l 6
 269 50 204 380 204 696 c 6
 204 763 l 6
 204 1063 264 1350 531 1350 c 6
 545 1350 l 6
538 399 m 29
 860 -144 l 29
EndSplineSet
EndChar

StartChar: R
Encoding: 82 82 49
Width: 1075
VWidth: 1947
GlyphClass: 2
Flags: MW
LayerCount: 2
Fore
SplineSet
5 1458 m 5
 1071 1458 l 5
 1071 0 l 5
 5 0 l 5
 5 1458 l 5
955 -102 m 25
 538 712 l 25
215 717 m 25
 548 717 l 2
 756 717 860 792 860 973 c 2
 860 1063 l 2
 860 1259 767 1325 548 1325 c 2
 215 1325 l 1
 215 0 l 1
EndSplineSet
EndChar

StartChar: S
Encoding: 83 83 50
Width: 1075
VWidth: 2334
GlyphClass: 2
Flags: MW
LayerCount: 2
Fore
SplineSet
166 357 m 4
 166 203 345 50 528 50 c 14
 548 50 l 22
 726 50 884 183 884 337 c 14
 884 367 l 22
 884 471 822 628 679 696 c 6
 375 830 l 6
 271 876 222 957 222 1033 c 6
 222 1063 l 6
 222 1218 355 1350 535 1350 c 14
 543 1350 l 22
 696 1350 824 1293 865 1177 c 5
 874 1152 879 1093 879 1063 c 4
EndSplineSet
EndChar

StartChar: T
Encoding: 84 84 51
Width: 1075
VWidth: 1947
GlyphClass: 2
Flags: MW
LayerCount: 2
Fore
SplineSet
538 0 m 29
 538 1325 l 29
86 1325 m 29
 990 1325 l 29
EndSplineSet
EndChar

StartChar: U
Encoding: 85 85 52
Width: 1075
VWidth: 1947
GlyphClass: 2
Flags: MW
LayerCount: 2
Fore
SplineSet
215 1400 m 29
 215 337 l 22
 215 156 320 50 528 50 c 14
 548 50 l 22
 756 50 860 156 860 337 c 14
 860 1400 l 29
EndSplineSet
EndChar

StartChar: V
Encoding: 86 86 53
Width: 1075
VWidth: 1708
GlyphClass: 2
Flags: MW
LayerCount: 2
Fore
SplineSet
5 -25 m 5
 5 1400 l 5
 1071 1400 l 5
 1071 -25 l 5
 5 -25 l 5
184 1425 m 29
 538 5 l 29
 891 1425 l 29
EndSplineSet
EndChar

StartChar: W
Encoding: 87 87 54
Width: 1075
VWidth: 1947
GlyphClass: 2
Flags: MW
LayerCount: 2
Fore
SplineSet
5 1400 m 5
 372 1400 l 5
 372 1190 l 5
 710 1190 l 5
 711 1400 l 5
 1071 1400 l 5
 1071 0 l 5
 5 0 l 5
 5 1400 l 5
116 1475 m 29
 239 -1 l 29
 538 1049 l 29
 837 -1 l 29
 960 1476 l 29
EndSplineSet
EndChar

StartChar: X
Encoding: 88 88 55
Width: 1075
VWidth: 1947
GlyphClass: 2
Flags: MW
LayerCount: 2
Fore
SplineSet
5 1400 m 5
 1071 1400 l 5
 1071 0 l 5
 5 0 l 5
 5 1400 l 5
907 1480 m 29
 169 -80 l 29
169 1480 m 29
 907 -80 l 29
EndSplineSet
EndChar

StartChar: Y
Encoding: 89 89 56
Width: 1075
VWidth: 1947
GlyphClass: 2
Flags: MW
LayerCount: 2
Fore
SplineSet
5 1400 m 5
 1071 1400 l 5
 1071 -25 l 5
 5 -25 l 5
 5 1400 l 5
907 1480 m 21
 538 513 l 5
 538 -50 l 13
169 1480 m 29
 538 513 l 29
EndSplineSet
EndChar

StartChar: Z
Encoding: 90 90 57
Width: 1075
VWidth: 1947
GlyphClass: 2
Flags: MW
LayerCount: 2
Fore
SplineSet
109 1425 m 1
 967 1425 l 1
 967 -25 l 1
 109 -25 l 1
 109 1425 l 1
109 1325 m 25
 907 1325 l 25
 169 76 l 25
 967 76 l 25
EndSplineSet
EndChar

StartChar: bracketleft
Encoding: 91 91 58
Width: 1075
VWidth: 1947
GlyphClass: 2
Flags: MW
LayerCount: 2
Fore
SplineSet
860 1480 m 21
 410 1480 l 5
 410 -80 l 29
 860 -80 l 13
EndSplineSet
EndChar

StartChar: backslash
Encoding: 92 92 59
Width: 1075
VWidth: 1708
GlyphClass: 2
Flags: MW
LayerCount: 2
Fore
SplineSet
860 -25 m 29
 215 1425 l 29
EndSplineSet
EndChar

StartChar: bracketright
Encoding: 93 93 60
Width: 1075
VWidth: 1947
GlyphClass: 2
Flags: MW
LayerCount: 2
Fore
SplineSet
215 1480 m 21
 666 1480 l 5
 666 -80 l 29
 215 -80 l 13
EndSplineSet
EndChar

StartChar: asciicircum
Encoding: 94 94 61
Width: 1075
VWidth: 1947
GlyphClass: 2
Flags: MW
LayerCount: 2
Fore
SplineSet
77 1425 m 5
 999 1425 l 5
 999 0 l 5
 77 0 l 5
 77 1425 l 5
259 989 m 29
 538 1385 l 29
 817 989 l 29
EndSplineSet
EndChar

StartChar: underscore
Encoding: 95 95 62
Width: 1075
VWidth: 1947
GlyphClass: 2
Flags: MW
LayerCount: 2
Fore
SplineSet
167 -92 m 29
 909 -92 l 29
EndSplineSet
EndChar

StartChar: grave
Encoding: 96 96 63
Width: 1075
VWidth: 1708
GlyphClass: 2
Flags: W
HStem: 1404 20G<430 457>
LayerCount: 2
Fore
SplineSet
710 1147 m 2
 719 1137 722 1125 722 1113 c 3
 722 1098 716 1084 704 1072 c 0
 692 1060 678 1054 664 1054 c 3
 652 1054 641 1058 630 1067 c 2
 386 1257 l 2
 364 1275 352 1304 352 1333 c 3
 352 1358 360 1383 376 1400 c 0
 392 1417 418 1424 442 1424 c 3
 472 1424 500 1411 518 1389 c 2
 710 1147 l 2
EndSplineSet
EndChar

StartChar: a
Encoding: 97 97 64
Width: 1075
VWidth: 1947
GlyphClass: 2
Flags: MW
LayerCount: 2
Fore
SplineSet
860 561 m 29
 528 561 l 22
 320 561 215 425 215 337 c 14
 215 259 l 22
 215 169 320 50 528 50 c 14
 548 50 l 22
 704 50 860 214 860 305 c 13
242 854 m 5
 286 944 381 974 528 974 c 14
 548 974 l 22
 756 974 860 898 860 719 c 14
 860 0 l 29
EndSplineSet
EndChar

StartChar: b
Encoding: 98 98 65
Width: 1075
VWidth: 2334
GlyphClass: 2
Flags: MW
LayerCount: 2
Fore
SplineSet
215 1400 m 29
 215 0 l 29
215 597 m 14
 215 427 l 22
 215 201 354 50 528 50 c 14
 548 50 l 22
 756 50 860 201 860 427 c 14
 860 597 l 22
 860 821 756 974 548 974 c 14
 528 974 l 22
 320 974 215 821 215 597 c 14
EndSplineSet
EndChar

StartChar: c
Encoding: 99 99 66
Width: 1075
VWidth: 2334
GlyphClass: 2
Flags: MW
LayerCount: 2
Fore
SplineSet
843 830 m 5
 806 936 708 973 548 973 c 14
 528 973 l 22
 320 973 215 821 215 597 c 14
 215 427 l 22
 215 201 354 50 528 50 c 14
 548 50 l 22
 706 50 803 86 842 188 c 5
EndSplineSet
EndChar

StartChar: d
Encoding: 100 100 67
Width: 1075
VWidth: 1947
GlyphClass: 2
Flags: MW
LayerCount: 2
Fore
SplineSet
860 1400 m 29
 860 0 l 29
215 597 m 14
 215 427 l 22
 215 201 354 50 528 50 c 14
 548 50 l 22
 756 50 860 201 860 427 c 14
 860 597 l 22
 860 821 756 974 548 974 c 14
 528 974 l 22
 320 974 215 821 215 597 c 14
EndSplineSet
EndChar

StartChar: e
Encoding: 101 101 68
Width: 1075
VWidth: 1947
GlyphClass: 2
Flags: MW
LayerCount: 2
Fore
SplineSet
215 561 m 29
 860 561 l 29
 860 719 l 22
 860 898 756 974 548 974 c 14
 528 974 l 22
 320 974 215 898 215 719 c 14
 215 337 l 22
 215 188 320 50 528 50 c 14
 548 50 l 22
 712 50 812 91 846 202 c 5
EndSplineSet
EndChar

StartChar: f
Encoding: 102 102 69
Width: 1075
VWidth: 1947
GlyphClass: 2
Flags: MW
LayerCount: 2
Fore
SplineSet
109 856 m 29
 860 856 l 29
860 1185 m 21
 860 1208 854 1230 843 1250 c 5
 809 1314 731 1350 652 1350 c 14
 632 1350 l 22
 528 1350 424 1274 424 1184 c 6
 424 0 l 13
EndSplineSet
EndChar

StartChar: g
Encoding: 103 103 70
Width: 1075
VWidth: 1947
GlyphClass: 2
Flags: MW
LayerCount: 2
Fore
SplineSet
344 446 m 5
 272 415 215 347 215 281 c 6
 215 215 l 6
 215 150 268 100 338 68 c 5
807 880 m 5
 842 926 897 959 955 959 c 13
548 98 m 14
 528 98 l 22
 372 98 215 14 215 -87 c 14
 215 -107 l 22
 215 -220 372 -309 528 -309 c 14
 548 -309 l 22
 704 -309 860 -220 860 -107 c 14
 860 -87 l 22
 860 4 704 98 548 98 c 14
548 974 m 14
 528 974 l 22
 372 974 215 853 215 719 c 14
 215 673 l 22
 215 533 372 391 528 391 c 14
 548 391 l 22
 704 391 860 532 860 673 c 14
 860 719 l 22
 860 853 704 974 548 974 c 14
EndSplineSet
EndChar

StartChar: h
Encoding: 104 104 71
Width: 1075
VWidth: 2334
GlyphClass: 2
Flags: MW
LayerCount: 2
Fore
SplineSet
860 0 m 29
 860 719 l 22
 860 898 756 974 548 974 c 14
 528 974 l 22
 345 974 215 731 215 597 c 14
 215 513 l 29
215 1400 m 29
 215 0 l 29
EndSplineSet
EndChar

StartChar: k
Encoding: 107 107 74
Width: 1075
VWidth: 1947
GlyphClass: 2
Flags: MW
LayerCount: 2
Fore
SplineSet
5 1425 m 5
 1071 1425 l 5
 1071 0 l 5
 5 0 l 5
 5 1425 l 5
967 -156 m 29
 446 621 l 29
860 1063 m 29
 217 384 l 29
215 1425 m 29
 215 0 l 29
EndSplineSet
EndChar

StartChar: l
Encoding: 108 108 75
Width: 1075
VWidth: 1947
GlyphClass: 2
Flags: MW
LayerCount: 2
Fore
SplineSet
215 75 m 29
 860 75 l 29
538 92 m 21
215 1325 m 29
 538 1325 l 29
 538 75 l 29
EndSplineSet
EndChar

StartChar: m
Encoding: 109 109 76
Width: 1075
VWidth: 2334
GlyphClass: 2
Flags: MW
LayerCount: 2
Fore
SplineSet
907 0 m 29
 907 809 l 22
 907 940 845 974 751 974 c 14
 739 974 l 22
 626 974 538 853 538 719 c 14
 538 603 l 29
538 0 m 29
 538 809 l 22
 538 940 477 974 382 974 c 14
 370 974 l 22
 257 974 169 853 169 719 c 14
 169 603 l 29
169 1024 m 29
 169 0 l 29
EndSplineSet
EndChar

StartChar: n
Encoding: 110 110 77
Width: 1075
VWidth: 2334
GlyphClass: 2
Flags: W
LayerCount: 2
Fore
SplineSet
860 0 m 29
 860 719 l 22
 860 898 756 974 548 974 c 14
 528 974 l 22
 345 974 215 731 215 597 c 14
 215 513 l 29
215 1024 m 29
 215 0 l 29
EndSplineSet
EndChar

StartChar: o
Encoding: 111 111 78
Width: 1075
VWidth: 1947
GlyphClass: 2
Flags: MW
LayerCount: 2
Fore
SplineSet
558 973 m 6
 771 973 872 800 872 562 c 6
 872 470 l 6
 872 226 774 50 555 50 c 6
 515 50 l 6
 301 50 204 230 204 471 c 6
 204 561 l 6
 204 798 302 973 513 973 c 6
 558 973 l 6
EndSplineSet
EndChar

StartChar: p
Encoding: 112 112 79
Width: 1075
VWidth: 1947
GlyphClass: 2
Flags: MW
LayerCount: 2
Fore
SplineSet
215 597 m 14
 215 427 l 22
 215 201 354 50 528 50 c 14
 548 50 l 22
 756 50 860 201 860 427 c 14
 860 597 l 22
 860 821 756 974 548 974 c 14
 528 974 l 22
 320 974 215 821 215 597 c 14
215 1024 m 29
 215 -385 l 29
EndSplineSet
EndChar

StartChar: q
Encoding: 113 113 80
Width: 1075
VWidth: 1947
GlyphClass: 2
Flags: MW
LayerCount: 2
Fore
SplineSet
860 1024 m 29
 860 -385 l 29
215 597 m 14
 215 427 l 22
 215 201 354 50 528 50 c 14
 548 50 l 22
 756 50 860 201 860 427 c 14
 860 597 l 22
 860 821 756 974 548 974 c 14
 528 974 l 22
 320 974 215 821 215 597 c 14
EndSplineSet
EndChar

StartChar: r
Encoding: 114 114 81
Width: 1075
VWidth: 1947
GlyphClass: 2
Flags: MW
LayerCount: 2
Fore
SplineSet
868 864 m 5
 826 937 753 974 629 974 c 14
 609 974 l 22
 400 974 215 693.996 215 470 c 14
 215 0 l 29
 215 1024 l 29
EndSplineSet
EndChar

StartChar: s
Encoding: 115 115 82
Width: 1075
VWidth: 1947
GlyphClass: 2
Flags: MW
LayerCount: 2
Fore
SplineSet
860 719 m 21
 860 750 852 781 838 810 c 5
 789 909 669 974 548 974 c 14
 528 974 l 22
 372 974 215 952 215 789 c 6
 215 777 l 6
 215 724 254 649 320 625 c 6
 754 451 l 6
 823 423 860 368 860 301 c 6
 860 255 l 6
 860 119 704 50 548 50 c 14
 493 50 l 22
 336 50 181 203 181 337 c 12
EndSplineSet
EndChar

StartChar: t
Encoding: 116 116 83
Width: 1075
VWidth: 1947
GlyphClass: 2
Flags: MW
LayerCount: 2
Fore
SplineSet
5 1425 m 5
 1071 1425 l 5
 1071 -84 l 5
 5 -84 l 5
 5 1425 l 5
109 933 m 29
 860 933 l 29
837 215 m 21
 837 193 831 171 820 150 c 5
 786 87 708 50 629 50 c 14
 609 50 l 22
 504 50 395 127 400 216 c 6
 473 1506 l 13
EndSplineSet
EndChar

StartChar: u
Encoding: 117 117 84
Width: 1075
VWidth: 2334
GlyphClass: 2
Flags: MW
LayerCount: 2
Fore
SplineSet
215 1024 m 29
 215 337 l 22
 215 158 296 50 504 50 c 14
 525 50 l 22
 708 50 860 313 860 447 c 14
 860 531 l 29
860 0 m 29
 860 1024 l 29
EndSplineSet
EndChar

StartChar: v
Encoding: 118 118 85
Width: 1075
VWidth: 1947
GlyphClass: 2
Flags: MW
LayerCount: 2
Fore
SplineSet
5 1024 m 5
 1071 1024 l 5
 1071 -25 l 5
 5 -25 l 5
 5 1024 l 5
109 1327 m 29
 538 50 l 29
 967 1325 l 29
EndSplineSet
EndChar

StartChar: w
Encoding: 119 119 86
Width: 1075
VWidth: 1947
GlyphClass: 2
Flags: MW
LayerCount: 2
Fore
SplineSet
5 1024 m 5
 372 1024 l 5
 372 949 l 5
 710 949 l 5
 711 1024 l 5
 1071 1024 l 5
 1071 0 l 5
 5 0 l 5
 5 1024 l 5
116 1099 m 29
 239 75 l 29
 538 855 l 29
 837 75 l 29
 960 1100 l 29
EndSplineSet
EndChar

StartChar: x
Encoding: 120 120 87
Width: 1075
VWidth: 1947
GlyphClass: 2
Flags: MW
LayerCount: 2
Fore
SplineSet
5 1024 m 5
 1071 1024 l 5
 1071 0 l 5
 5 0 l 5
 5 1024 l 5
907 1098 m 29
 169 -74 l 29
169 1098 m 29
 907 -75 l 29
EndSplineSet
EndChar

StartChar: y
Encoding: 121 121 88
Width: 1075
VWidth: 1947
GlyphClass: 2
Flags: MW
LayerCount: 2
Fore
SplineSet
5 -410 m 5
 5 1024 l 5
 1071 1024 l 5
 1071 -410 l 5
 5 -410 l 5
967 1325 m 5
 592 -110 l 6
 564 -186 493 -294 380 -294 c 5
 296 -294 213 -239 181 -170 c 5
 172 -150 167 -130 167 -110 c 13
652 109 m 13
 109 1270 l 29
EndSplineSet
EndChar

StartChar: z
Encoding: 122 122 89
Width: 1075
VWidth: 1947
GlyphClass: 2
Flags: MW
LayerCount: 2
Fore
SplineSet
106 1049 m 5
 973 1049 l 5
 973 -25 l 5
 106 -25 l 5
 106 1049 l 5
167 949 m 29
 907 949 l 29
 181 75 l 29
 990 75 l 29
EndSplineSet
EndChar

StartChar: braceleft
Encoding: 123 123 90
Width: 1075
VWidth: 1947
GlyphClass: 2
Flags: MW
LayerCount: 2
Fore
SplineSet
817 1480 m 21
 697 1480 l 6
 547 1480 427 1392 427 1242 c 6
 427 970 l 6
 427 862 349 732 197 732 c 6
 167 732 l 5
 197 732 l 6
 349 732 427 570 427 430 c 6
 427 158 l 6
 427 8 547 -80 697 -80 c 14
 817 -80 l 13
EndSplineSet
EndChar

StartChar: bar
Encoding: 124 124 91
Width: 1075
VWidth: 1947
GlyphClass: 2
Flags: MW
LayerCount: 2
Fore
SplineSet
538 -77 m 29
 538 1477 l 29
EndSplineSet
EndChar

StartChar: braceright
Encoding: 125 125 92
Width: 1075
VWidth: 1947
GlyphClass: 2
Flags: MW
LayerCount: 2
Fore
SplineSet
167 1480 m 21
 287 1480 l 6
 437 1480 557 1392 557 1242 c 6
 557 970 l 6
 557 862 635 732 787 732 c 6
 817 732 l 5
 787 732 l 6
 635 732 557 570 557 430 c 6
 557 158 l 6
 557 8 437 -80 287 -80 c 14
 167 -80 l 13
EndSplineSet
EndChar

StartChar: asciitilde
Encoding: 126 126 93
Width: 1075
VWidth: 1947
GlyphClass: 2
Flags: MW
LayerCount: 2
Fore
SplineSet
216 832 m 21
 247 940 321 977 394 977 c 14
 409 977 l 22
 438.255 977 479.783 963.149 512 936 c 6
 587 872.8 l 6
 613.671 850.325 639.589 833 667 833 c 14
 682 833 l 22
 763 833 831 886 861 977 c 13
EndSplineSet
EndChar

StartChar: cent
Encoding: 162 162 96
Width: 1075
VWidth: 2334
GlyphClass: 2
Flags: MW
LayerCount: 2
Fore
SplineSet
435 -110 m 25
 704 1182 l 25
843 830 m 1
 806 936 708 973 548 973 c 10
 528 973 l 18
 320 973 215 821 215 597 c 10
 215 427 l 18
 215 201 354 50 528 50 c 10
 548 50 l 18
 706 50 803 86 842 188 c 1
EndSplineSet
EndChar

StartChar: sterling
Encoding: 163 163 97
Width: 1075
VWidth: 1947
GlyphClass: 2
Flags: MW
LayerCount: 2
Fore
SplineSet
86 731 m 21
 837 731 l 13
860 1063 m 21
 857 1113 839 1192 809 1232 c 5
 752 1312 652 1350 548 1350 c 14
 528 1350 l 22
 320 1350 215 1242 215 1083 c 14
 215 1044 l 22
 215 993 236 951 267 896 c 6
 375 710 l 6
 406 657 424 570 424 516 c 14
 424 470 l 22
 424 305 266 126 146 59 c 6
 109 38 l 5
 146 59 l 6
 265 125 324 124 424 124 c 14
 457 124 l 22
 497 124 529 130 556 114 c 6
 640 67 l 6
 660 57 681 50 704 50 c 14
 756 50 l 22
 830 50 917 76 955 115 c 13
EndSplineSet
EndChar

StartChar: euro
Encoding: 8364 8364 98
Width: 1075
VWidth: 1947
GlyphClass: 2
Flags: MW
LayerCount: 2
Fore
SplineSet
714 565 m 29
 74 565 l 29
864 907 m 29
 109 907 l 29
901 172 m 5
 850 88 750 50 634 50 c 7
 347 50 300 416 300 732 c 7
 300 1056 351 1350 634 1350 c 7
 750 1350 851 1314 901 1232 c 5
EndSplineSet
EndChar

StartChar: yen
Encoding: 165 165 99
Width: 1075
VWidth: 1947
GlyphClass: 2
Flags: MW
LayerCount: 2
Fore
SplineSet
109 123 m 21
 967 123 l 13
109 382 m 21
 967 382 l 13
5 1400 m 5
 1071 1400 l 5
 1071 -160 l 5
 5 -160 l 5
 5 1400 l 5
907 1480 m 21
 538 513 l 5
 538 -185 l 13
169 1480 m 29
 538 513 l 29
EndSplineSet
EndChar

StartChar: section
Encoding: 167 167 101
Width: 1075
VWidth: 1947
GlyphClass: 2
Flags: MW
LayerCount: 2
Fore
SplineSet
300 81 m 5
 344 -9 452 -94 561 -94 c 14
 580 -94 l 22
 721 -94 860 22 860 149 c 14
 860 172 l 22
 860 293 688 415 547 415 c 14
 529 415 l 22
772 1320 m 5
 727 1406 621 1490 515 1490 c 14
 496 1490 l 22
 355 1490 215 1368 215 1247 c 14
 215 1224 l 22
 215 1098 388 966 529 966 c 14
 547 966 l 22
548 966 m 14
 528 966 l 22
 372 966 215 877 215 743 c 14
 215 677 l 22
 215 537 372 415 528 415 c 14
 548 415 l 22
 704 415 860 536 860 677 c 14
 860 743 l 22
 860 877 704 966 548 966 c 14
EndSplineSet
EndChar

StartChar: copyright
Encoding: 169 169 103
Width: 1075
VWidth: 1947
GlyphClass: 2
Flags: MW
LayerCount: 2
Fore
SplineSet
538 1066.95 m 7
 841 1066.95 996 838.1 996 593.15 c 7
 996 356.25 841 117.05 538 117.05 c 7
 239 117.05 80 348.2 80 593.15 c 7
 80 841.55 243 1066.95 538 1066.95 c 7
707 431 m 5
 669 390.75 612 364.3 538 364.3 c 7
 388 364.3 309 470.1 309 592 c 7
 309 717.35 391 819.7 538 819.7 c 7
 612 819.7 668 795.55 706 755.3 c 5
EndSplineSet
EndChar

StartChar: ordfeminine
Encoding: 170 170 104
Width: 1075
VWidth: 1947
GlyphClass: 2
Flags: MW
LayerCount: 2
Fore
SplineSet
109 319 m 21
 967 319 l 13
812 1013 m 29
 529 1013 l 22
 352 1013 264 898 264 823 c 14
 264 784 l 22
 264 707 352 593 529 593 c 14
 547 593 l 22
 679 593 812 745 812 823 c 13
287 1267 m 5
 324 1343 404 1382 529 1382 c 14
 547 1382 l 22
 724 1382 812 1304 812 1152 c 14
 812 536 l 29
EndSplineSet
EndChar

StartChar: guillemotleft
Encoding: 171 171 105
Width: 1075
VWidth: 1947
GlyphClass: 2
Flags: MW
LayerCount: 2
Fore
SplineSet
849 124 m 29
 669 425 l 29
 669 512 l 29
 849 814 l 29
429 124 m 29
 249 425 l 29
 249 512 l 29
 429 814 l 29
EndSplineSet
EndChar

StartChar: logicalnot
Encoding: 172 172 106
Width: 1075
VWidth: 1708
GlyphClass: 2
Flags: MW
LayerCount: 2
Fore
SplineSet
127 600 m 29
 817 600 l 29
 817 214 l 29
EndSplineSet
EndChar

StartChar: softhyphen
Encoding: 173 173 107
Width: 1075
VWidth: 1947
GlyphClass: 2
Flags: MW
LayerCount: 2
Fore
SplineSet
299 600 m 29
 777 600 l 29
EndSplineSet
EndChar

StartChar: registered
Encoding: 174 174 108
Width: 1075
VWidth: 1947
GlyphClass: 2
Flags: MW
LayerCount: 2
Fore
SplineSet
722 342.45 m 29
 563 600.05 l 29
391 602.35 m 29
 555 602.35 l 6
 658 602.35 710 635.7 710 704.7 c 6
 710 744.95 l 6
 710 813.95 664 838.1 555 838.1 c 6
 391 838.1 l 5
 391 342.45 l 5
538 1066.95 m 7
 841 1066.95 996 840.4 996 595.45 c 7
 996 358.55 841 117.05 538 117.05 c 7
 239 117.05 80 350.5 80 595.45 c 7
 80 843.85 243 1066.95 538 1066.95 c 7
EndSplineSet
EndChar

StartChar: degree
Encoding: 176 176 110
Width: 1075
VWidth: 1947
GlyphClass: 2
Flags: MW
LayerCount: 2
Fore
SplineSet
538 1333 m 7
 687 1333 763 1229 763 1108 c 7
 763 991 687 882 538 882 c 7
 391 882 313 987 313 1108 c 7
 313 1231 393 1333 538 1333 c 7
EndSplineSet
EndChar

StartChar: plusminus
Encoding: 177 177 111
Width: 1075
VWidth: 1947
GlyphClass: 2
Flags: MW
LayerCount: 2
Fore
SplineSet
127 108 m 29
 949 108 l 29
538 419 m 29
 538 1273 l 29
127 862 m 29
 949 862 l 29
EndSplineSet
EndChar

StartChar: twosuperior
Encoding: 178 178 112
Width: 1075
VWidth: 2334
GlyphClass: 2
Flags: MW
LayerCount: 2
Fore
SplineSet
411 1264 m 5
 437 1324 469 1365 554 1365 c 14
 564 1365 l 22
 663 1365 712 1315 712 1217 c 14
 712 1195 l 22
 712 1163 693 1093 662 1052 c 6
 480 843 l 6
 444 796 419 707 403 650 c 5
 763 650 l 13
357 -25 m 5
 357 963 l 5
 307 987 l 5
 307 1479 l 5
 999 1479 l 5
 999 -25 l 5
 357 -25 l 5
EndSplineSet
EndChar

StartChar: threesuperior
Encoding: 179 179 113
Width: 1075
VWidth: 2334
GlyphClass: 2
Flags: MW
LayerCount: 2
Fore
SplineSet
365.74 1263.9 m 5
 392.141 1322.2 462.1 1360.15 532.06 1360.15 c 14
 543.94 1360.15 l 22
 633.04 1360.15 692.44 1296.9 692.44 1211.65 c 14
 692.44 1189.1 l 22
 692.44 1128.6 633.04 1022.35 544.6 1022.35 c 5
 433.06 1022.35 l 13
 543.94 1022.35 l 22
 662.74 1022.35 722.141 979.55 722.141 856.35 c 14
 722.141 845.35 l 22
 722.141 724.35 662.74 631.85 543.94 631.85 c 14
 532.06 631.85 l 22
 451.54 631.85 353.859 712.8 353.859 812.35 c 5
EndSplineSet
EndChar

StartChar: micro
Encoding: 181 181 115
Width: 1075
VWidth: 2334
GlyphClass: 2
Flags: MW
LayerCount: 2
Fore
SplineSet
168 -348 m 17
 210 -237 215 -174 215 -25 c 10
 215 516 l 25
215 1024 m 25
 215 397 l 18
 215 218 320 50 528 50 c 10
 548 50 l 18
 731 50 860 263 860 397 c 10
 860 531 l 25
895 -40 m 17
 875 14 860 36 860 99 c 2
 860 1024 l 9
EndSplineSet
EndChar

StartChar: paragraph
Encoding: 182 182 116
Width: 1075
VWidth: 1947
GlyphClass: 2
Flags: MW
LayerCount: 2
Fore
SplineSet
322 890 m 29
 322 1240 l 29
860 0 m 29
 860 1400 l 29
 444 1400 l 29
444 759 m 29
 424 759 l 6
 320 759 181 795 181 1057 c 6
 181 1127 l 6
 181 1313 314 1400 424 1400 c 6
 444 1400 l 5
 444 0 l 5
EndSplineSet
EndChar

StartChar: periodcentered
Encoding: 183 183 117
Width: 1075
VWidth: 1947
GlyphClass: 2
Flags: MW
LayerCount: 2
Fore
SplineSet
634.625 747 m 4
 634.625 695.25 594.875 649.5 537.125 649.5 c 4
 481.625 649.5 440.375 694.5 440.375 747 c 4
 440.375 798 478.625 844.5 537.125 844.5 c 4
 594.125 844.5 634.625 799.5 634.625 747 c 4
EndSplineSet
EndChar

StartChar: onesuperior
Encoding: 185 185 119
Width: 1075
VWidth: 1708
GlyphClass: 2
Flags: MW
LayerCount: 2
Fore
SplineSet
234 857 m 5
 442 1045 l 5
 442 1180 l 5
 390 1236 l 5
 582 1425 l 5
 842 1425 l 5
 842 627 l 5
 234 627 l 5
 234 857 l 5
603 641 m 29
 603 1374 l 29
 331 1204 l 29
EndSplineSet
EndChar

StartChar: ordmasculine
Encoding: 186 186 120
Width: 1075
VWidth: 1947
GlyphClass: 2
Flags: MW
LayerCount: 2
Fore
SplineSet
109 319 m 21
 967 319 l 13
538 1385 m 7
 745 1385 822 1189 822 962 c 7
 822 733 745 598 538 598 c 7
 331 598 254 733 254 962 c 7
 254 1189 331 1385 538 1385 c 7
EndSplineSet
EndChar

StartChar: guillemotright
Encoding: 187 187 121
Width: 1075
VWidth: 1947
GlyphClass: 2
Flags: MW
LayerCount: 2
Fore
SplineSet
227 124 m 29
 407 425 l 29
 407 512 l 29
 227 814 l 29
647 124 m 29
 827 425 l 29
 827 512 l 29
 647 814 l 29
EndSplineSet
EndChar

StartChar: OE
Encoding: 338 338 122
Width: 1075
VWidth: 1947
GlyphClass: 2
Flags: MW
LayerCount: 2
Fore
SplineSet
954 75 m 21
 607 75 l 5
 607 244 l 5
 607 1156 l 6
 607 1325 l 5
 954 1325 l 5
876 732 m 5
 627 732 l 5
122 1156 m 6
 122 1249 215 1325 335 1325 c 6
 399 1325 l 6
 506 1325 607 1254 607 1156 c 6
 607 244 l 6
 607 150 506 75 399 75 c 6
 335 75 l 6
 215 75 122 153 122 244 c 14
 122 1156 l 6
EndSplineSet
EndChar

StartChar: oe
Encoding: 339 339 123
Width: 1075
VWidth: 1947
GlyphClass: 2
Flags: MW
LayerCount: 2
Fore
SplineSet
954 219 m 7
 954 115 858 50 746 50 c 7
 640 50 538 121 538 219 c 6
 538 805 l 6
 538 899 640 974 746 974 c 7
 860 974 954 910 954 805 c 14
 954 542 l 5
 538 542 l 5
122 805 m 6
 122 908 218 974 330 974 c 7
 436 974 538 903 538 805 c 6
 538 219 l 6
 538 125 436 50 330 50 c 7
 215 50 122 115 122 219 c 14
 122 805 l 6
EndSplineSet
EndChar

StartChar: AE
Encoding: 198 198 132
Width: 1075
VWidth: 1947
GlyphClass: 2
Flags: MW
LayerCount: 2
Fore
SplineSet
5 0 m 5
 5 1425 l 5
 1071 1425 l 5
 1071 0 l 5
 5 0 l 5
95 -90 m 21
 311 1168 l 6
 327 1263 414 1325 539 1325 c 14
 607 1325 l 29
954 75 m 21
 607 75 l 5
 607 1325 l 5
 954 1325 l 5
895 764 m 5
 237 764 l 5
EndSplineSet
EndChar

StartChar: Eth
Encoding: 208 208 142
Width: 1075
VWidth: 1947
GlyphClass: 2
Flags: MW
LayerCount: 2
Fore
SplineSet
54 756 m 29
 528 756 l 29
538 1325 m 6
 824 1325 872 1057 872 732 c 7
 872 401 817 75 538 75 c 6
 262 75 l 5
 262 1325 l 5
 538 1325 l 6
EndSplineSet
EndChar

StartChar: multiply
Encoding: 215 215 149
Width: 1075
VWidth: 1708
GlyphClass: 2
Flags: MW
LayerCount: 2
Fore
SplineSet
829 309 m 29
 247 923 l 29
247 309 m 29
 829 923 l 29
EndSplineSet
EndChar

StartChar: Thorn
Encoding: 222 222 156
Width: 1075
VWidth: 1947
GlyphClass: 2
Flags: MW
LayerCount: 2
Fore
SplineSet
215 445 m 29
 548 445 l 6
 756 445 860 566 860 747 c 6
 860 970 l 6
 860 1149 767 1230 548 1230 c 6
 215 1230 l 5
215 1540 m 5
 215 0 l 5
EndSplineSet
EndChar

StartChar: germandbls
Encoding: 223 223 157
Width: 1075
VWidth: 1947
GlyphClass: 2
Flags: MW
LayerCount: 2
Fore
SplineSet
215 -388 m 5
 215 1096 l 6
 215 1274 320 1350 528 1350 c 6
 548 1350 l 6
 710 1350 803 1242 803 1063 c 6
 803 1025 l 6
 803 844 699 787 491 787 c 6
 470 787 l 29
 548 787 l 22
 756 787 860 664 860 485 c 14
 860 337 l 22
 860 156 756 50 600 50 c 6
 591 50 l 6
 528 50 481 61 437 97 c 5
EndSplineSet
EndChar

StartChar: ae
Encoding: 230 230 164
Width: 1075
VWidth: 1947
GlyphClass: 2
Flags: MW
LayerCount: 2
Fore
SplineSet
954 219 m 7
 954 115 858 50 746 50 c 7
 640 50 538 121 538 219 c 6
 538 805 l 6
 538 900 640 974 746 974 c 7
 861 974 954 910 954 805 c 14
 954 542 l 5
 335 542 l 6
 215 542 122 462 122 358 c 6
 122 219 l 22
 122 115 215 50 330 50 c 7
 436 50 538 125 538 219 c 6
 538 805 l 6
 538 903 436 974 330 974 c 7
 218 974 122 909 122 805 c 7
EndSplineSet
EndChar

StartChar: eth
Encoding: 240 240 174
Width: 1075
VWidth: 1947
GlyphClass: 2
Flags: W
VStem: 182 558<220.939 427 497 723.211>
LayerCount: 2
Fore
SplineSet
217 1099 m 29
 893 1339 l 29
860 430 m 29
 860 620 l 22
 860 909 570 1252 320 1432 c 13
215 457 m 14
 215 427 l 22
 215 201 354 50 528 50 c 14
 548 50 l 22
 756 50 860 201 860 427 c 14
 860 457 l 22
 860 681 756 849 548 849 c 14
 528 849 l 22
 320 849 215 681 215 457 c 14
EndSplineSet
EndChar

StartChar: divide
Encoding: 247 247 181
Width: 1075
VWidth: 1947
GlyphClass: 2
Flags: MW
LayerCount: 2
Fore
SplineSet
127 600 m 29
 949 600 l 29
655.5 960 m 4
 655.5 907.5 610.5 849.75 547.5 849.75 c 4
 478.5 849.75 436.5 912.75 436.5 960 c 4
 436.5 1007.25 478.5 1070.25 547.5 1070.25 c 4
 610.5 1070.25 655.5 1012.5 655.5 960 c 4
655.5 242.625 m 4
 655.5 187.875 611.25 132.375 547.5 132.375 c 4
 484.5 132.375 436.5 190.125 436.5 242.625 c 4
 436.5 291.375 482.25 350.625 547.5 350.625 c 4
 612.75 350.625 655.5 291.375 655.5 242.625 c 4
EndSplineSet
EndChar

StartChar: oslash
Encoding: 248 248 182
Width: 1075
VWidth: 1947
GlyphClass: 2
Flags: MW
LayerCount: 2
Fore
SplineSet
558 973 m 6
 771 973 872 800 872 562 c 6
 872 470 l 6
 872 226 774 50 555 50 c 6
 515 50 l 6
 301 50 204 230 204 471 c 6
 204 561 l 6
 204 798 302 973 513 973 c 6
 558 973 l 6
172 -48 m 29
 910 1062 l 29
EndSplineSet
EndChar

StartChar: thorn
Encoding: 254 254 188
Width: 1075
VWidth: 1947
GlyphClass: 2
Flags: MW
LayerCount: 2
Fore
SplineSet
215 -387 m 29
 215 1400 l 29
538 973 m 7
 781 973 872 780 872 513 c 7
 872 244 781 50 538 50 c 7
 340 50 215 183 215 374 c 6
 215 685 l 6
 215 873 341 973 538 973 c 7
EndSplineSet
EndChar

StartChar: minus
Encoding: 8722 8722 190
Width: 1075
VWidth: 1708
GlyphClass: 2
Flags: MW
LayerCount: 2
Fore
SplineSet
50 600 m 29
 1025 600 l 29
EndSplineSet
EndChar

StartChar: quoteleft
Encoding: 8216 8216 192
Width: 1075
VWidth: 1947
GlyphClass: 2
Flags: W
HStem: 1371 55<566.409 601.285>
VStem: 348.75 194.25<1000.19 1103.37>
LayerCount: 2
Fore
SplineSet
423 1082 m 17
 424 1214 447 1400 677 1426 c 9
 692 1371 l 17
 623 1346 476 1249 579 1160 c 9
 423 1082 l 17
423 1082 m 0
 423 1134 463 1180 521 1180 c 0
 576 1180 618 1135 618 1082 c 0
 618 1031 579 985 521 985 c 0
 464 985 423 1030 423 1082 c 0
EndSplineSet
EndChar

StartChar: gravemodifier
Encoding: 715 715 193
Width: 1075
VWidth: 2334
GlyphClass: 2
Flags: MW
LayerCount: 2
Fore
SplineSet
469 1647 m 29
 667 1438 l 29
EndSplineSet
EndChar

StartChar: acute
Encoding: 180 180 194
Width: 1075
VWidth: 1947
GlyphClass: 2
Flags: MW
LayerCount: 2
Fore
SplineSet
638 1587 m 29
 439 1308 l 29
EndSplineSet
EndChar

StartChar: circumflex
Encoding: 710 710 195
Width: 1075
VWidth: 1947
GlyphClass: 2
Flags: MW
LayerCount: 2
Fore
SplineSet
338 1460 m 29
 538 1600 l 29
 738 1460 l 29
77 732 m 5
 77 1638 l 5
 999 1638 l 5
 999 732 l 5
 77 732 l 5
EndSplineSet
EndChar

StartChar: tilde
Encoding: 732 732 196
Width: 1075
VWidth: 1947
GlyphClass: 2
Flags: MW
LayerCount: 2
Fore
SplineSet
259 1502 m 17
 278 1527.55 l 2
 311.158 1572.14 341.987 1612 411 1612 c 10
 427 1612 l 18
 462.216 1612 505.901 1594.99 528 1575.76 c 2
 547 1558.89 l 2
 569.258 1539.39 612.831 1522 648 1522 c 10
 665 1522 l 18
 735 1522 766.761 1557.49 801 1608.27 c 2
 817 1632 l 9
EndSplineSet
EndChar

StartChar: macronmodifier
Encoding: 713 713 197
Width: 1075
VWidth: 1947
GlyphClass: 2
Flags: MW
LayerCount: 2
Fore
SplineSet
764 1538 m 5
 311 1538 l 5
EndSplineSet
EndChar

StartChar: breve
Encoding: 728 728 198
Width: 1075
VWidth: 1947
GlyphClass: 2
Flags: MW
LayerCount: 2
Fore
SplineSet
769.667 1592.64 m 4
 710.274 1523.12 627.028 1480 535.5 1480 c 7
 444.254 1480 363.068 1522.85 305.501 1592 c 4
EndSplineSet
EndChar

StartChar: dotaccent
Encoding: 729 729 199
Width: 1075
VWidth: 1947
GlyphClass: 2
Flags: W
HStem: 1437.3 179.399<387.327 525.88>
VStem: 367.3 179.399<1457.72 1596.28>
LayerCount: 2
Fore
SplineSet
444 1527 m 27
 444 1577 483 1617 533 1617 c 27
 583 1617 624 1577 624 1527 c 27
 624 1477 583 1437 533 1437 c 27
 483 1437 444 1477 444 1527 c 27
EndSplineSet
EndChar

StartChar: dieresis
Encoding: 168 168 200
Width: 1075
VWidth: 1947
GlyphClass: 2
Flags: W
HStem: 1455 176<199.117 345.475 576.683 722.135>
VStem: 187 171<1466.61 1620.09> 565 169<1466.82 1619.9>
LayerCount: 2
Fore
SplineSet
406 1544 m 0
 406 1497 367 1455 321 1455 c 0
 275 1455 235 1494 235 1544 c 0
 235 1596 277 1631 320 1631 c 0
 369 1631 406 1590 406 1544 c 0
840 1544 m 0
 840 1492 799 1455 756 1455 c 0
 711 1455 671 1495 671 1544 c 0
 671 1594 711 1631 756 1631 c 0
 797 1631 840 1596 840 1544 c 0
EndSplineSet
EndChar

StartChar: ring
Encoding: 730 730 202
Width: 1075
VWidth: 1947
GlyphClass: 2
Flags: MW
LayerCount: 2
Fore
SplineSet
327.6 1425 m 31
 327.6 1537.2 415.6 1627.4 527.8 1627.4 c 31
 640 1627.4 732.4 1537.2 732.4 1425 c 31
 732.4 1312.8 640 1222.6 527.8 1222.6 c 31
 415.6 1222.6 327.6 1312.8 327.6 1425 c 31
438 1425 m 31
 438 1374 478 1333 529 1333 c 31
 580 1333 622 1374 622 1425 c 31
 622 1476 580 1517 529 1517 c 31
 478 1517 438 1476 438 1425 c 31
EndSplineSet
EndChar

StartChar: cedilla
Encoding: 184 184 203
Width: 1075
VWidth: 1947
GlyphClass: 2
Flags: MW
LayerCount: 2
Fore
SplineSet
575 18 m 21
 575 0 l 5
 566 -132 l 5
 707 -132 764 -191.082 764 -270 c 7
 764 -354.476 669.027 -411 578 -411 c 31
 494.055 -411 429 -379 377 -334 c 13
EndSplineSet
EndChar

StartChar: ogonek
Encoding: 731 731 204
Width: 1075
VWidth: 1947
GlyphClass: 2
Flags: MW
LayerCount: 2
Fore
SplineSet
683.889 -290.471 m 5
 656.998 -313.999 l 6
 634 -333 604.567 -344.8 572.6 -344.8 c 15
 501.946 -344.8 445.2 -286.653 445.2 -216 c 23
 445.2 -180.897 458.736 -149.178 480.982 -126 c 14
 607 0 l 29
 607 72 l 29
EndSplineSet
EndChar

StartChar: caron
Encoding: 711 711 205
Width: 1075
VWidth: 1947
GlyphClass: 2
Flags: MW
LayerCount: 2
Fore
SplineSet
338 1600 m 29
 538 1460 l 29
 738 1600 l 29
77 1422 m 5
 77 1736 l 5
 999 1736 l 5
 999 1422 l 5
 77 1422 l 5
EndSplineSet
EndChar

StartChar: dotlessi
Encoding: 305 305 206
Width: 1075
VWidth: 1947
GlyphClass: 2
Flags: W
LayerCount: 2
Fore
SplineSet
215 75 m 29
 860 75 l 29
538 92 m 21
215 949 m 29
 538 949 l 29
 538 75 l 29
EndSplineSet
EndChar

StartChar: currency
Encoding: 164 164 210
Width: 1075
VWidth: 1947
GlyphClass: 2
Flags: MW
LayerCount: 2
Fore
SplineSet
928 380.65 m 21
 757 577.3 l 5
319 986.7 m 5
 148 1183.35 l 13
148 380.65 m 21
 320 578.45 l 5
757 986.7 m 5
 928 1183.35 l 13
547 1077.55 m 22
 688 1077.55 828 936.1 828 798.1 c 14
 828 770.5 l 22
 828 624.45 688 491.05 547 491.05 c 14
 529 491.05 l 22
 388 491.05 248 625.6 248 770.5 c 14
 248 798.1 l 22
 248 936.1 388 1077.55 529 1077.55 c 14
 547 1077.55 l 22
EndSplineSet
EndChar

StartChar: brokenbar
Encoding: 166 166 211
Width: 1075
VWidth: 1947
GlyphClass: 2
Flags: MW
LayerCount: 2
Fore
SplineSet
538 -77 m 21
 538 600 l 5
538 832 m 5
 538 1477 l 13
EndSplineSet
EndChar

StartChar: onequarter
Encoding: 188 188 212
Width: 1075
VWidth: 1708
GlyphClass: 2
Flags: MW
LayerCount: 2
Fore
SplineSet
556 575 m 5
 1028 575 l 5
 1028 -209 l 5
 556 -209 l 5
 556 575 l 5
903 -209 m 29
 903 525 l 29
 581 41 l 29
 1004 41 l 29
-172 972 m 5
 69 1207 l 5
 69 1295 l 5
 9 1351 l 5
 231 1555 l 5
 531 1555 l 5
 531 789 l 5
 -172 789 l 5
 -172 972 l 5
255 803 m 29
 255 1504 l 29
 -60 1319 l 29
215 -25 m 29
 860 1425 l 29
EndSplineSet
EndChar

StartChar: onehalf
Encoding: 189 189 213
Width: 1075
VWidth: 1708
GlyphClass: 2
Flags: MW
LayerCount: 2
Fore
SplineSet
619 372 m 5
 649 432 686 473 784 473 c 14
 796 473 l 22
 910 473 967 423 967 325 c 14
 967 303 l 22
 967 271 945 201 909 160 c 6
 699 -49 l 6
 657 -128 630 -153 612 -210 c 5
 1026 -210 l 13
499 -345 m 5
 499 619 l 5
 1299 619 l 5
 1299 -345 l 5
 499 -345 l 5
-172 972 m 1
 69 1207 l 1
 69 1295 l 1
 9 1351 l 1
 231 1555 l 1
 531 1555 l 1
 531 789 l 1
 -172 789 l 1
 -172 972 l 1
255 803 m 25
 255 1504 l 25
 -60 1319 l 25
215 -25 m 25
 860 1425 l 25
EndSplineSet
EndChar

StartChar: threequarters
Encoding: 190 190 214
Width: 1075
VWidth: 1708
GlyphClass: 2
Flags: MW
LayerCount: 2
Fore
SplineSet
104 1432 m 5
 132 1491 205 1529 278 1529 c 14
 290 1529 l 22
 383 1529 444 1450 444 1365 c 14
 444 1390 l 22
 444 1314 383 1255 291 1255 c 5
 175 1255 l 13
 290 1255 l 22
 413 1255 475 1148 475 1025 c 14
 475 1014 l 22
 475 893 413 864 290 864 c 14
 278 864 l 22
 194 864 92 866 92 966 c 5
556 575 m 1
 1028 575 l 1
 1028 -209 l 1
 556 -209 l 1
 556 575 l 1
903 -209 m 25
 903 525 l 25
 581 41 l 25
 1004 41 l 25
215 -25 m 25
 860 1425 l 25
EndSplineSet
EndChar

StartChar: Lslash
Encoding: 321 321 216
Width: 1075
VWidth: 1947
GlyphClass: 2
Flags: MW
LayerCount: 2
Fore
SplineSet
51 512 m 29
 747 730 l 29
215 1400 m 29
 215 76 l 29
 967 76 l 29
EndSplineSet
EndChar

StartChar: lslash
Encoding: 322 322 257
Width: 1075
VWidth: 1947
GlyphClass: 2
Flags: MW
LayerCount: 2
Fore
SplineSet
215 75 m 29
 860 75 l 29
538 92 m 21
215 1325 m 29
 538 1325 l 29
 538 75 l 29
190 512 m 29
 886 730 l 29
EndSplineSet
EndChar

StartChar: dotlessj
Encoding: 567 567 260
Width: 1075
VWidth: 1947
GlyphClass: 2
Flags: MW
LayerCount: 2
Fore
SplineSet
343 -110 m 7
 343 -207 438 -294 555 -294 c 31
 673 -294 768 -229 768 -109 c 6
 768 949 l 29
 314 949 l 29
EndSplineSet
EndChar

StartChar: eng
Encoding: 331 331 261
Width: 1075
VWidth: 2334
GlyphClass: 2
Flags: MW
LayerCount: 2
Fore
SplineSet
387 -228 m 5
 427 -271 489 -294 554 -294 c 14
 613 -294 l 22
 768 -294 860 -170 860 -28 c 14
 860 719 l 22
 860 898 756 974 548 974 c 14
 528 974 l 22
 345 974 215 731 215 597 c 14
 215 513 l 29
215 1024 m 29
 215 0 l 29
EndSplineSet
EndChar

StartChar: ellipsis
Encoding: 8230 8230 266
Width: 1075
VWidth: 1947
GlyphClass: 2
Flags: MW
LayerCount: 2
Fore
SplineSet
970 113 m 4
 970 71 937 32 893 32 c 4
 851 32 817 70 817 113 c 4
 817 155 850 193 893 193 c 4
 938 193 970 152 970 113 c 4
258 113 m 4
 258 71 226 32 182 32 c 4
 139 32 106 70 106 113 c 4
 106 155 138 193 182 193 c 4
 226 193 258 152 258 113 c 4
614 113 m 4
 614 71 581 32 537 32 c 4
 495 32 462 70 462 113 c 4
 462 155 494 193 537 193 c 4
 582 193 614 152 614 113 c 4
EndSplineSet
EndChar

StartChar: uparrow
Encoding: 8593 8593 267
Width: 1075
VWidth: 1708
GlyphClass: 2
Flags: W
LayerCount: 2
Fore
SplineSet
999 -99 m 5
 77 -99 l 5
 77 1044 l 5
 999 1044 l 5
 999 -99 l 5
898 620 m 29
 538 991 l 29
 178 620 l 29
538 991 m 29
 538 177 l 29
EndSplineSet
EndChar

StartChar: downarrow
Encoding: 8595 8595 268
Width: 1075
VWidth: 1708
GlyphClass: 2
Flags: W
LayerCount: 2
Fore
SplineSet
999 124 m 1
 77 124 l 1
 77 1331 l 1
 999 1331 l 1
 999 124 l 1
898 580 m 25
 538 177 l 25
 178 580 l 25
538 177 m 25
 538 991 l 25
EndSplineSet
EndChar

StartChar: spaceopenbox
Encoding: 9251 9251 269
Width: 1075
VWidth: 1708
GlyphClass: 2
Flags: MW
LayerCount: 2
Fore
SplineSet
817 124 m 25
 817 -92 l 25
 182 -92 l 25
 182 124 l 25
EndSplineSet
EndChar

StartChar: uni2074
Encoding: 8308 8308 271
Width: 1075
VWidth: 1947
GlyphClass: 2
Flags: MW
LayerCount: 2
Fore
SplineSet
142 1425 m 5
 921 1425 l 5
 921 544 l 5
 142 544 l 5
 142 1425 l 5
700 544 m 29
 700 1402 l 29
 211 839 l 29
 1010 839 l 29
EndSplineSet
EndChar

StartChar: Eng
Encoding: 330 330 273
Width: 1075
VWidth: 2334
GlyphClass: 2
Flags: MW
LayerCount: 2
Fore
SplineSet
387 -228 m 5
 427 -271 489 -294 554 -294 c 14
 613 -294 l 22
 768 -294 860 -170 860 -28 c 14
 860 1063 l 22
 860 1242 756 1350 548 1350 c 14
 528 1350 l 22
 345 1350 215 1092 215 958 c 14
 215 906 l 29
215 1400 m 29
 215 0 l 29
EndSplineSet
EndChar

StartChar: dcroat
Encoding: 273 273 274
Width: 1075
VWidth: 1947
GlyphClass: 2
Flags: W
LayerCount: 2
Fore
SplineSet
523 1280 m 29
 1015 1280 l 29
860 1400 m 25
 860 0 l 25
215 597 m 10
 215 427 l 18
 215 201 354 50 528 50 c 10
 548 50 l 18
 756 50 860 201 860 427 c 10
 860 597 l 18
 860 821 756 974 548 974 c 10
 528 974 l 18
 320 974 215 821 215 597 c 10
EndSplineSet
EndChar

StartChar: bullet
Encoding: 8226 8226 280
Width: 1075
VWidth: 1947
GlyphClass: 2
Flags: W
HStem: 516.375 302.25<362.379 557.913>
VStem: 315.375 290.25<564.375 772.594>
LayerCount: 2
Fore
SplineSet
683 669 m 4
 683 594 617 516 537 516 c 4
 456 516 392 596 392 669 c 4
 392 746 460 819 537 819 c 4
 614 819 683 746 683 669 c 4
EndSplineSet
EndChar

StartChar: florin
Encoding: 402 402 281
Width: 1075
VWidth: 1947
GlyphClass: 2
Flags: MW
LayerCount: 2
Fore
SplineSet
966 1280 m 5
 928 1332 861 1350 785 1350 c 15
 668 1350 578 1281 573 1181 c 14
 503 -127 l 22
 497 -212 409 -311 291 -311 c 7
 227 -311 149 -278 108 -220 c 5
213 827 m 29
 897 827 l 29
EndSplineSet
EndChar

StartChar: dagger
Encoding: 8224 8224 282
Width: 1075
VWidth: 1947
GlyphClass: 2
Flags: MW
LayerCount: 2
Fore
SplineSet
538 1425 m 29
 538 -386 l 25
109 950 m 25
 967 950 l 25
EndSplineSet
EndChar

StartChar: daggerdbl
Encoding: 8225 8225 283
Width: 1075
VWidth: 1947
GlyphClass: 2
Flags: MW
LayerCount: 2
Fore
SplineSet
109 89 m 25
 967 89 l 25
538 1425 m 25
 538 -386 l 25
109 950 m 25
 967 950 l 25
EndSplineSet
EndChar

StartChar: trademark
Encoding: 8482 8482 284
Width: 1075
VWidth: 1947
GlyphClass: 2
Flags: MW
LayerCount: 2
Fore
SplineSet
77 466 m 1
 77 1400 l 1
 999 1400 l 1
 999 466 l 1
 813 466 l 1
 813 519 l 1
 666 519 l 1
 666 466 l 1
 77 466 l 1
565 411 m 25
 565 1401 l 25
 738 615 l 25
 911 1401 l 25
 910 411 l 25
313 469 m 25
 313 1340 l 25
113 1340 m 25
 513 1340 l 25
EndSplineSet
EndChar

StartChar: Ecyrillic
Encoding: 1028 1028 290
Width: 1075
VWidth: 1708
GlyphClass: 2
Flags: W
HStem: -24 187<376.578 609.035> 636 187<271.795 631.272> 1025.62 21<649.176 745.286> 1203 186<383.896 583.125>
VStem: 85.271 186.195<312.104 636 823 1053.6>
LayerCount: 2
Fore
SplineSet
245 756 m 29
 623 755 l 29
828 310 m 4
 783 165 697 50 538 50 c 7
 251 50 204 416 204 732 c 7
 204 1057 255 1350 538 1350 c 7
 705 1350 790 1228 833 1076 c 4
EndSplineSet
EndChar

StartChar: Becyrillic
Encoding: 1041 1041 298
Width: 1075
VWidth: 1947
GlyphClass: 2
Flags: MW
LayerCount: 2
Fore
SplineSet
215 787 m 29
 548 787 l 6
 756 787 860 666 860 485 c 6
 860 312 l 6
 860 133 767 50 548 50 c 6
 215 50 l 5
 215 1325 l 13
 863 1325 l 29
EndSplineSet
EndChar

StartChar: Gecyrillic
Encoding: 1043 1043 299
Width: 1075
VWidth: 1947
GlyphClass: 2
Flags: MW
LayerCount: 2
Fore
SplineSet
215 0 m 29
 215 1324 l 29
 967 1324 l 29
EndSplineSet
EndChar

StartChar: Decyrillic
Encoding: 1044 1044 300
Width: 1075
VWidth: 1947
GlyphClass: 2
Flags: MW
LayerCount: 2
Fore
SplineSet
146 -162 m 17
 146 76 l 9
 930 76 l 17
 930 -162 l 9
5 1425 m 1
 1071 1425 l 1
 1071 118 l 1
 967 -190 l 1
 115 -190 l 1
 5 118 l 1
 5 1425 l 1
250 76 m 17
 415 966 l 2
 436 1078 560 1277 701 1325 c 9
 837 1325 l 17
 837 76 l 9
EndSplineSet
EndChar

StartChar: Zhecyrillic
Encoding: 1046 1046 302
Width: 1075
VWidth: 1947
GlyphClass: 2
Flags: MW
LayerCount: 2
Fore
SplineSet
5 1400 m 1
 1071 1400 l 1
 1071 0 l 1
 5 0 l 1
 5 1400 l 1
967 -85 m 25
 699 697 l 25
109 -85 m 25
 376 697 l 25
109 1500 m 25
 538 215 l 25
 967 1500 l 25
538 1350 m 25
 538 -20 l 25
EndSplineSet
EndChar

StartChar: Zecyrillic
Encoding: 1047 1047 303
Width: 1075
VWidth: 1947
GlyphClass: 2
Flags: MW
LayerCount: 2
Fore
SplineSet
213 1190 m 5
 259 1296 382 1350 504 1350 c 14
 548 1350 l 22
 704 1350 808 1218 808 1063 c 14
 808 1022 l 22
 808 912 704 809 550 809 c 5
 354 809 l 13
 548 809 l 22
 756 809 860 641 860 417 c 14
 860 397 l 22
 860 177 756 50 548 50 c 14
 504 50 l 22
 363 50 192 156 192 337 c 5
EndSplineSet
EndChar

StartChar: Iicyrillic
Encoding: 1048 1048 304
Width: 1075
VWidth: 1947
GlyphClass: 2
Flags: MW
LayerCount: 2
Fore
SplineSet
5 1400 m 5
 1071 1400 l 5
 1071 0 l 5
 5 0 l 5
 5 1400 l 5
860 0 m 29
 860 1350 l 29
 215 49 l 29
 215 1400 l 29
EndSplineSet
EndChar

StartChar: Elcyrillic
Encoding: 1051 1051 307
Width: 1075
VWidth: 1947
GlyphClass: 2
Flags: MW
LayerCount: 2
Fore
SplineSet
5 1425 m 5
 1071 1425 l 5
 1071 0 l 5
 5 0 l 5
 5 1425 l 5
147 -99 m 20
 404 966 l 6
 440 1107 560 1277 701 1325 c 13
 860 1325 l 29
 860 0 l 29
EndSplineSet
EndChar

StartChar: Pecyrillic
Encoding: 1055 1055 311
Width: 1075
VWidth: 1947
GlyphClass: 2
Flags: MW
LayerCount: 2
Fore
SplineSet
215 0 m 29
 215 1325 l 29
 860 1325 l 29
 860 0 l 29
EndSplineSet
EndChar

StartChar: Ucyrillic
Encoding: 1059 1059 315
Width: 1075
VWidth: 1947
GlyphClass: 2
Flags: MW
LayerCount: 2
Fore
SplineSet
5 1400 m 1
 1071 1400 l 1
 1071 -40 l 1
 5 -40 l 1
 5 1400 l 1
907 1480 m 16
 559 214 l 2
 515 73 428 51 352 50 c 2
 320 50 l 2
 296 50 272 55 249 61 c 2
 215 73 l 9
169 1480 m 25
 619 459 l 25
EndSplineSet
EndChar

StartChar: Efcyrillic
Encoding: 1060 1060 316
Width: 1075
VWidth: 1947
GlyphClass: 2
Flags: MW
LayerCount: 2
Fore
SplineSet
546 1252 m 6
 855 1252 922 1001 922 754 c 6
 922 697 l 6
 922 435 847 149 546 149 c 6
 531 149 l 6
 228 149 154 435 154 697 c 6
 154 753 l 6
 154 1002 223 1252 530 1252 c 6
 546 1252 l 6
538 1425 m 29
 538 -25 l 29
EndSplineSet
EndChar

StartChar: Tsecyrillic
Encoding: 1062 1062 318
Width: 1075
VWidth: 1947
GlyphClass: 2
Flags: MW
LayerCount: 2
Fore
SplineSet
5 1400 m 5
 1011 1400 l 5
 1011 -302 l 5
 5 -302 l 5
 5 1400 l 5
789 74 m 29
 914 74 l 29
 779 -189 l 29
215 1400 m 29
 215 75 l 29
 780 75 l 21
 780 1400 l 13
EndSplineSet
EndChar

StartChar: Checyrillic
Encoding: 1063 1063 319
Width: 1075
VWidth: 1947
GlyphClass: 2
Flags: MW
LayerCount: 2
Fore
SplineSet
860 512 m 29
 528 512 l 6
 320 512 215 633 215 814 c 6
 215 1400 l 21
860 1400 m 5
 860 0 l 5
EndSplineSet
EndChar

StartChar: Shacyrillic
Encoding: 1064 1064 320
Width: 1075
VWidth: 1947
GlyphClass: 2
Flags: MW
LayerCount: 2
Fore
SplineSet
538 1184 m 21
 538 75 l 13
158 1400 m 29
 158 75 l 29
 918 75 l 29
 918 1400 l 29
EndSplineSet
EndChar

StartChar: Shchacyrillic
Encoding: 1065 1065 321
Width: 1075
VWidth: 1947
GlyphClass: 2
Flags: MW
LayerCount: 2
Fore
SplineSet
509 1184 m 21
 509 75 l 13
5 1400 m 5
 1045 1400 l 5
 1045 -302 l 5
 5 -302 l 5
 5 1400 l 5
865 75 m 29
 970 75 l 29
 815 -189 l 29
158 1400 m 29
 158 75 l 29
 860 75 l 21
 860 1400 l 13
EndSplineSet
EndChar

StartChar: Hardsigncyrillic
Encoding: 1066 1066 322
Width: 1075
VWidth: 1947
GlyphClass: 2
Flags: W
HStem: 1405 20G<60 922>
VStem: 0 922<-60 680>
LayerCount: 2
Fore
SplineSet
74 1425 m 5
 1071 1425 l 5
 1071 -60 l 5
 5 -60 l 5
 5 712 l 5
 167 714 l 5
 167 959 l 5
 74 959 l 5
 74 1425 l 5
389 747 m 29
 618 747 l 6
 756 747 860 626 860 445 c 6
 860 337 l 6
 860 158 756 75 618 75 c 6
 389 75 l 5
 389 1325 l 13
 155 1325 l 29
 10 896 l 29
EndSplineSet
EndChar

StartChar: Yericyrillic
Encoding: 1067 1067 323
Width: 1075
VWidth: 1947
GlyphClass: 2
Flags: MW
LayerCount: 2
Fore
SplineSet
895 1400 m 21
 895 0 l 13
181 797 m 29
 259 797 l 6
 467 797 572 676 572 495 c 6
 572 337 l 6
 572 158 478 75 259 75 c 6
 181 75 l 5
 181 1400 l 5
EndSplineSet
EndChar

StartChar: Softsigncyrillic
Encoding: 1068 1068 324
Width: 1075
VWidth: 1947
GlyphClass: 2
Flags: MW
LayerCount: 2
Fore
SplineSet
215 747 m 29
 548 747 l 6
 756 747 860 626 860 445 c 6
 860 337 l 6
 860 158 767 75 548 75 c 6
 215 75 l 5
 215 1400 l 5
EndSplineSet
EndChar

StartChar: Ereversedcyrillic
Encoding: 1069 1069 325
Width: 1075
VWidth: 1947
GlyphClass: 2
Flags: MW
LayerCount: 2
Fore
SplineSet
453 756 m 29
 831 755 l 29
247 315 m 5
 291 168 377 50 538 50 c 7
 824 50 872 416 872 732 c 7
 872 1057 821 1350 538 1350 c 7
 371 1350 285 1228 242 1074 c 5
EndSplineSet
EndChar

StartChar: IUcyrillic
Encoding: 1070 1070 326
Width: 1075
VWidth: 1947
GlyphClass: 2
Flags: MW
LayerCount: 2
Fore
SplineSet
191 700 m 29
 469 700 l 29
158 1400 m 21
 158 0 l 13
711 1350 m 4
 878 1350 918 1057 918 732 c 4
 918 401 878 50 711 50 c 4
 545 50 504 416 504 732 c 4
 504 1057 545 1350 711 1350 c 4
EndSplineSet
EndChar

StartChar: IAcyrillic
Encoding: 1071 1071 327
Width: 1075
VWidth: 1947
GlyphClass: 2
Flags: MW
LayerCount: 2
Fore
SplineSet
5 1458 m 5
 1071 1458 l 5
 1071 0 l 5
 5 0 l 5
 5 1458 l 5
121 -102 m 29
 538 712 l 29
860 717 m 29
 528 717 l 6
 320 717 215 792 215 973 c 6
 215 1063 l 6
 215 1259 309 1325 528 1325 c 6
 860 1325 l 5
 860 0 l 5
EndSplineSet
EndChar

StartChar: becyrillic
Encoding: 1073 1073 329
Width: 1075
VWidth: 2334
GlyphClass: 2
Flags: HMWO
LayerCount: 2
Fore
SplineSet
860 1386 m 21
 738 1346 666 1325 537 1325 c 7
 377 1325 215 1222 215 953 c 6
 215 510 l 13
215 597 m 14
 215 427 l 22
 215 201 354 50 528 50 c 14
 548 50 l 22
 756 50 860 201 860 427 c 14
 860 597 l 22
 860 821 756 974 548 974 c 14
 528 974 l 22
 320 974 215 821 215 597 c 14
EndSplineSet
EndChar

StartChar: vecyrillic
Encoding: 1074 1074 330
Width: 1075
VWidth: 2334
GlyphClass: 2
Flags: MW
LayerCount: 2
Fore
SplineSet
215 75 m 21
 571 75 l 22
 778 75 882 181 882 316 c 14
 882 325 l 22
 882 458 777 549 570 549 c 6
 215 549 l 5
 509 549 l 6
 717 549 821 657 821 772 c 7
 821 887 717 949 509 949 c 6
 215 949 l 13
 215 75 l 21
EndSplineSet
EndChar

StartChar: gecyrillic
Encoding: 1075 1075 331
Width: 1075
VWidth: 1947
GlyphClass: 2
Flags: MW
LayerCount: 2
Fore
SplineSet
181 719 m 21
 181 750 189 781 204 810 c 5
 253 909 373 974 493 974 c 14
 514 974 l 22
 670 974 826 952 826 789 c 6
 826 777 l 6
 826 724 788 649 722 625 c 6
 287 451 l 6
 218 423 181 368 181 301 c 6
 181 255 l 6
 181 119 337 50 493 50 c 14
 548 50 l 22
 706 50 860 203 860 337 c 12
EndSplineSet
EndChar

StartChar: decyrillic
Encoding: 1076 1076 332
Width: 1075
VWidth: 1947
GlyphClass: 2
Flags: MW
LayerCount: 2
Fore
SplineSet
146 -162 m 21
 146 76 l 13
 930 76 l 21
 930 -162 l 13
5 1049 m 5
 1071 1049 l 5
 1071 118 l 5
 967 -190 l 5
 115 -190 l 5
 5 118 l 5
 5 1049 l 5
250 76 m 21
 346 605 l 5
 373 731 548 923 701 949 c 13
 837 949 l 21
 837 76 l 13
EndSplineSet
EndChar

StartChar: zhecyrillic
Encoding: 1078 1078 334
Width: 1075
VWidth: 1947
GlyphClass: 2
Flags: MW
LayerCount: 2
Fore
SplineSet
5 1400 m 5
 1071 1400 l 5
 1071 0 l 5
 5 0 l 5
 5 1400 l 5
967 -142 m 29
 692 494 l 29
109 -142 m 29
 382 494 l 29
109 1038 m 29
 538 149 l 29
 967 1038 l 29
538 1024 m 29
 538 -14 l 29
EndSplineSet
EndChar

StartChar: zecyrillic
Encoding: 1079 1079 335
Width: 1075
VWidth: 1947
GlyphClass: 2
Flags: MW
LayerCount: 2
Fore
SplineSet
213 813 m 5
 259 919 382 973 504 973 c 14
 548 973 l 22
 704 973 808 898 808 808 c 14
 808 797 l 22
 808 686 704 560 550 560 c 5
 424 560 l 13
 548 560 l 22
 756 560 860 450 860 334 c 14
 860 314 l 22
 860 201 756 50 548 50 c 14
 528 50 l 22
 387 50 215 124 215 265 c 5
EndSplineSet
EndChar

StartChar: iicyrillic
Encoding: 1080 1080 336
Width: 1075
VWidth: 1947
GlyphClass: 2
Flags: MW
LayerCount: 2
Fore
SplineSet
5 1023 m 5
 1071 1023 l 5
 1071 0 l 5
 5 0 l 5
 5 1023 l 5
860 0 m 29
 860 973 l 29
 215 49 l 29
 215 1023 l 29
EndSplineSet
EndChar

StartChar: kacyrillic
Encoding: 1082 1082 338
Width: 1075
VWidth: 1947
GlyphClass: 2
Flags: MW
LayerCount: 2
Fore
SplineSet
5 1325 m 5
 1071 1325 l 5
 1071 0 l 5
 5 0 l 5
 5 1325 l 5
969 -125 m 29
 458 458 l 29
895 981 m 29
 215 126 l 29
215 1023 m 29
 215 -25 l 29
EndSplineSet
EndChar

StartChar: elcyrillic
Encoding: 1083 1083 339
Width: 1075
VWidth: 1947
GlyphClass: 2
Flags: MW
LayerCount: 2
Fore
SplineSet
5 1048 m 5
 1071 1048 l 5
 1071 0 l 5
 5 0 l 5
 5 1048 l 5
147 -99 m 20
 358 604 l 6
 394 745 560 900 701 948 c 13
 860 948 l 29
 860 0 l 29
EndSplineSet
EndChar

StartChar: emcyrillic
Encoding: 1084 1084 340
Width: 1075
VWidth: 1947
GlyphClass: 2
Flags: MW
LayerCount: 2
Fore
SplineSet
5 1 m 5
 5 1025 l 5
 1071 1025 l 5
 1071 1 l 5
 711 1 l 5
 710 76 l 5
 372 76 l 5
 372 1 l 5
 5 1 l 5
116 -74 m 29
 218 1026 l 29
 538 120 l 29
 860 1026 l 29
 960 -75 l 29
EndSplineSet
EndChar

StartChar: encyrillic
Encoding: 1085 1085 341
Width: 1075
VWidth: 1947
GlyphClass: 2
Flags: MW
LayerCount: 2
Fore
SplineSet
215 470 m 29
 860 470 l 29
860 1023 m 29
 860 0 l 29
215 1023 m 29
 215 0 l 29
EndSplineSet
EndChar

StartChar: tecyrillic
Encoding: 1090 1090 346
Width: 1075
VWidth: 1947
GlyphClass: 2
Flags: MW
LayerCount: 2
Fore
SplineSet
538 0 m 29
 538 950 l 29
86 950 m 29
 990 950 l 29
EndSplineSet
EndChar

StartChar: efcyrillic
Encoding: 1092 1092 348
Width: 1075
VWidth: 1947
GlyphClass: 2
Flags: MW
LayerCount: 2
Fore
SplineSet
561 893 m 6
 806 893 922 723 922 509 c 6
 922 427 l 6
 922 207 809 50 558 50 c 6
 511 50 l 6
 266 50 154 211 154 428 c 6
 154 509 l 6
 154 721 266 893 509 893 c 6
 561 893 l 6
538 1049 m 29
 538 -386 l 29
EndSplineSet
EndChar

StartChar: tsecyrillic
Encoding: 1094 1094 350
Width: 1075
VWidth: 2334
GlyphClass: 2
Flags: MW
LayerCount: 2
Fore
SplineSet
215 1024 m 29
 215 337 l 22
 215 158 296 50 504 50 c 14
 525 50 l 22
 708 50 860 313 860 447 c 14
 860 531 l 29
860 1024 m 29
 860 79 l 21
 904 43 909 8 909 -56 c 7
 909 -114 842 -188 768 -228 c 13
EndSplineSet
EndChar

StartChar: checyrillic
Encoding: 1095 1095 351
Width: 1075
VWidth: 1947
GlyphClass: 2
Flags: MW
LayerCount: 2
Fore
SplineSet
215 1024 m 29
 215 729 l 22
 215 550 296 427 504 427 c 14
 525 427 l 22
 708 427 860 705 860 839 c 14
 860 908 l 29
860 1024 m 29
 860 0 l 21
EndSplineSet
EndChar

StartChar: shacyrillic
Encoding: 1096 1096 352
Width: 1075
VWidth: 2334
GlyphClass: 2
Flags: MW
LayerCount: 2
Fore
SplineSet
169 1024 m 29
 169 215 l 22
 169 84 231 50 325 50 c 14
 337 50 l 22
 450 50 538 203 538 337 c 14
 538 421 l 29
538 1024 m 29
 538 215 l 22
 538 84 599 50 694 50 c 14
 706 50 l 22
 819 50 907 203 907 337 c 14
 907 421 l 29
907 0 m 29
 907 1024 l 29
EndSplineSet
EndChar

StartChar: shchacyrillic
Encoding: 1097 1097 353
Width: 1075
VWidth: 2334
GlyphClass: 2
Flags: MW
LayerCount: 2
Fore
SplineSet
169 1024 m 29
 169 215 l 22
 169 84 231 50 325 50 c 14
 337 50 l 22
 450 50 538 203 538 337 c 14
 538 421 l 29
538 1024 m 29
 538 215 l 22
 538 84 599 50 694 50 c 14
 706 50 l 22
 819 50 907 203 907 337 c 14
 907 421 l 29
814 -228 m 21
 888 -188 955 -114 955 -56 c 7
 955 8 951 43 907 79 c 5
 907 1024 l 13
EndSplineSet
EndChar

StartChar: hardsigncyrillic
Encoding: 1098 1098 354
Width: 1075
VWidth: 1947
GlyphClass: 2
Flags: MW
LayerCount: 2
Fore
SplineSet
74 1023 m 5
 1071 1023 l 5
 1071 -60 l 5
 5 -60 l 5
 5 246 l 5
 167 248 l 5
 167 572 l 5
 74 572 l 5
 74 1023 l 5
389 561 m 29
 548 561 l 22
 703 561 860 470 860 337 c 6
 860 259 l 6
 860 124 704 75 548 74 c 14
 389 74 l 29
 389 923 l 29
 155 923 l 29
 10 462 l 29
EndSplineSet
EndChar

StartChar: yericyrillic
Encoding: 1099 1099 355
Width: 1075
VWidth: 1947
GlyphClass: 2
Flags: MW
LayerCount: 2
Fore
SplineSet
918 0 m 25
 918 1023 l 25
158 1023 m 25
 158 75 l 25
 283 75 l 18
 439 75 572 124 572 259 c 2
 572 337 l 2
 572 470 452 561 283 561 c 10
 158 561 l 25
EndSplineSet
EndChar

StartChar: softsigncyrillic
Encoding: 1100 1100 356
Width: 1075
VWidth: 1947
GlyphClass: 2
Flags: MW
LayerCount: 2
Fore
SplineSet
215 1048 m 29
 215 75 l 29
 548 75 l 22
 704 75 860 124 860 259 c 6
 860 337 l 6
 860 470 716 561 548 561 c 14
 215 561 l 29
EndSplineSet
EndChar

StartChar: ereversedcyrillic
Encoding: 1101 1101 357
Width: 1075
VWidth: 1947
GlyphClass: 2
Flags: MW
LayerCount: 2
Fore
SplineSet
372 512 m 29
 842 512 l 29
215 830 m 5
 252 936 351 973 510 973 c 14
 531 973 l 22
 739 973 843 821 843 597 c 14
 843 427 l 22
 843 201 704 50 531 50 c 14
 510 50 l 22
 353 50 256 86 217 188 c 5
EndSplineSet
EndChar

StartChar: iucyrillic
Encoding: 1102 1102 358
Width: 1075
VWidth: 1947
GlyphClass: 2
Flags: MW
LayerCount: 2
Fore
SplineSet
190 512 m 29
 450 512 l 29
169 1023 m 29
 169 0 l 29
688 973 m 7
 855 973 907 780 907 513 c 7
 907 244 855 50 688 50 c 7
 522 50 470 244 470 513 c 7
 470 781 522 973 688 973 c 7
EndSplineSet
EndChar

StartChar: iacyrillic
Encoding: 1103 1103 359
Width: 1075
VWidth: 1947
GlyphClass: 2
Flags: W
LayerCount: 2
Fore
SplineSet
192 18 m 29
 550 470 l 29
860 0 m 29
 860 948 l 29
 528 948 l 22
 372 948 215 899 215 764 c 6
 215 693 l 6
 215 561 320 487 528 487 c 14
 860 487 l 29
EndSplineSet
EndChar

StartChar: ecyrillic
Encoding: 1108 1108 362
Width: 1075
VWidth: 1947
GlyphClass: 2
Flags: W
HStem: -28 187<334.41 618.281> 443 176<259 590> 864 181<344.825 620.404>
VStem: 75 181<245.25 443>
DStem2: 849 804 699 721 0.496139 -0.868243<-171.391 -2.35666>
LayerCount: 2
Fore
SplineSet
706 512 m 29
 235 512 l 29
862 830 m 5
 825 936 726 973 567 973 c 14
 546 973 l 22
 338 973 234 821 234 597 c 14
 234 427 l 22
 234 201 373 50 546 50 c 14
 567 50 l 22
 724 50 821 86 860 188 c 5
EndSplineSet
EndChar

StartChar: numero
Encoding: 8470 8470 372
Width: 1075
VWidth: 1947
Flags: MW
LayerCount: 2
Fore
SplineSet
785 1257.25 m 3
 874.5 1257.25 908 1123.15 908 918.85 c 3
 908 712.75 874.5 545.75 785 545.75 c 3
 695.5 545.75 662 712.75 662 918.85 c 3
 662 1123.15 695.5 1257.25 785 1257.25 c 3
77 1400 m 1
 999 1400 l 1
 999 0 l 1
 77 0 l 1
 77 1400 l 1
189 0 m 25
 189 1405 l 25
 547 -5 l 25
 547 1400 l 25
EndSplineSet
EndChar

StartChar: caroncomb
Encoding: 780 780 377
Width: 1075
VWidth: 1947
Flags: MW
LayerCount: 2
Fore
SplineSet
338 1600 m 29
 538 1460 l 29
 738 1600 l 29
77 1422 m 5
 77 1736 l 5
 999 1736 l 5
 999 1422 l 5
 77 1422 l 5
EndSplineSet
EndChar

StartChar: gravecomb
Encoding: 768 768 379
Width: 1075
VWidth: 2334
Flags: MW
LayerCount: 2
Fore
SplineSet
469 1647 m 29
 667 1438 l 29
EndSplineSet
EndChar

StartChar: acutecomb
Encoding: 769 769 380
Width: 1075
VWidth: 2334
Flags: MW
LayerCount: 2
Fore
SplineSet
607 1647 m 29
 409 1438 l 29
EndSplineSet
EndChar

StartChar: tildecomb
Encoding: 771 771 381
Width: 1075
VWidth: 1947
Flags: MW
LayerCount: 2
Fore
SplineSet
259 1502 m 17
 278 1527.55 l 2
 311.22 1572.22 341.987 1612 411 1612 c 10
 427 1612 l 18
 462.216 1612 505.901 1594.99 528 1575.76 c 2
 547 1558.89 l 2
 569.258 1539.39 612.831 1522 648 1522 c 10
 665 1522 l 18
 735 1522 765.704 1555.92 801 1608.27 c 2
 817 1632 l 9
EndSplineSet
EndChar

StartChar: hookabovecomb
Encoding: 777 777 382
Width: 1075
VWidth: 1947
Flags: MW
LayerCount: 2
Fore
SplineSet
545 1255 m 5
 545 1387 l 5
 686 1387 743 1416.08 743 1495 c 7
 743 1579.48 641.476 1606 557 1606 c 31
 475.519 1606 418.163 1589.67 356 1549 c 13
EndSplineSet
EndChar

StartChar: dotbelowcomb
Encoding: 803 803 383
Width: 1075
VWidth: 2334
Flags: MW
LayerCount: 2
Fore
SplineSet
449 -253 m 31
 449 -203 488 -163 538 -163 c 31
 588 -163 629 -203 629 -253 c 31
 629 -303 588 -343 538 -343 c 31
 488 -343 449 -303 449 -253 c 31
EndSplineSet
EndChar

StartChar: commaturnedabovecmb
Encoding: 786 786 396
Width: 1075
VWidth: 1947
Flags: MW
LayerCount: 2
Fore
SplineSet
575 18 m 21
 575 0 l 5
 566 -132 l 5
 707 -132 764 -191.082 764 -270 c 7
 764 -354.476 669.027 -411 578 -411 c 31
 494.055 -411 429 -379 377 -334 c 13
EndSplineSet
EndChar

StartChar: Hbar
Encoding: 294 294 400
Width: 1075
VWidth: 1947
Flags: W
LayerCount: 2
Fore
SplineSet
60 1170 m 25
 1015 1170 l 25
215 732 m 25
 860 732 l 25
860 1400 m 25
 860 0 l 25
215 1400 m 25
 215 0 l 25
EndSplineSet
EndChar

StartChar: hbar
Encoding: 295 295 401
Width: 1075
VWidth: 1947
Flags: W
LayerCount: 2
Fore
SplineSet
60 1280 m 29
 552 1280 l 29
860 0 m 25
 860 719 l 18
 860 898 756 974 548 974 c 10
 528 974 l 18
 345 974 215 731 215 597 c 10
 215 513 l 25
215 1400 m 25
 215 0 l 25
EndSplineSet
EndChar

StartChar: IJ
Encoding: 306 306 410
Width: 1075
VWidth: 1947
Flags: W
LayerCount: 2
Fore
SplineSet
504 337 m 13
 592 337 l 22
 682 337 727 425 727 597 c 14
 727 1340 l 29
117 60 m 29
 639 60 l 29
348 92 m 21
117 1340 m 29
 959 1340 l 5
348 1340.59 m 5
 348 60 l 13
EndSplineSet
EndChar

StartChar: Tbar
Encoding: 358 358 430
Width: 1075
VWidth: 1947
Flags: W
HStem: 0 21<351 574> 491 129<70.7293 852.336> 1197 203<56 351 574 866>
VStem: 70.7293 781.606<491 620> 351 223<0 1197>
LayerCount: 2
Fore
SplineSet
86 560 m 25
 990 560 l 25
538 0 m 25
 538 1325 l 25
86 1325 m 25
 990 1325 l 25
EndSplineSet
EndChar

StartChar: tbar
Encoding: 359 359 431
Width: 1075
VWidth: 1947
Flags: W
HStem: -19 209<493.818 713.488> 522 130<73.8504 844.924> 839 182<76 251 473 761>
VStem: 73.8504 771.074<522 652> 228 216<235.871 833.119> 251 215<420.546 839> 285 214<1094 1308>
DStem2: 265 1021 473 1021 0.0695178 0.997581<14.4597 287.696>
LayerCount: 2
Fore
SplineSet
5 1425 m 1
 1071 1425 l 1
 1071 -84 l 1
 5 -84 l 1
 5 1425 l 1
109 933 m 25
 860 933 l 25
837 215 m 17
 837 193 831 171 820 150 c 1
 786 87 708 50 629 50 c 10
 609 50 l 18
 504 50 395 127 400 216 c 2
 473 1506 l 9
86 560 m 25
 990 560 l 25
EndSplineSet
EndChar

StartChar: A
Encoding: 65 65 461
Width: 1075
VWidth: 1708
Flags: MW
LayerCount: 2
Fore
SplineSet
5 0 m 5
 5 1425 l 5
 1071 1425 l 5
 1071 0 l 5
 5 0 l 5
276 324 m 29
 800 324 l 29
187 -25 m 29
 538 1356 l 29
 889 -25 l 29
EndSplineSet
EndChar

StartChar: Lambda
Encoding: 923 923 462
Width: 1075
VWidth: 1708
Flags: MW
LayerCount: 2
Fore
SplineSet
5 0 m 5
 5 1425 l 5
 1071 1425 l 5
 1071 0 l 5
 5 0 l 5
187 -25 m 29
 538 1356 l 29
 889 -25 l 29
EndSplineSet
EndChar

StartChar: Delta
Encoding: 916 916 463
Width: 1075
VWidth: 1708
Flags: MW
LayerCount: 2
Fore
SplineSet
5 0 m 1
 5 1425 l 1
 1071 1425 l 1
 1071 0 l 1
 5 0 l 1
860 76 m 9
 538 1356 l 17
 215 75 l 1
 860 76 l 9
EndSplineSet
EndChar

StartChar: Theta
Encoding: 920 920 464
Width: 1075
VWidth: 1947
Flags: MW
LayerCount: 2
Fore
SplineSet
545 1350 m 6
 814 1350 872 1062 872 765 c 6
 872 696 l 6
 872 380 807 51 545 50 c 6
 532 50 l 6
 269 50 204 380 204 696 c 6
 204 763 l 6
 204 1063 264 1350 531 1350 c 6
 545 1350 l 6
417 699 m 21
 511 699 565 699 659 699 c 13
EndSplineSet
EndChar

StartChar: Xi
Encoding: 926 926 465
Width: 1075
VWidth: 1708
Flags: W
LayerCount: 2
Fore
SplineSet
215 337 m 29
 215 75 l 29
 860 75 l 29
 860 337 l 29
349 700 m 29
 727 700 l 29
215 1049 m 29
 215 1325 l 29
 860 1325 l 29
 860 1049 l 29
EndSplineSet
EndChar

StartChar: Sigma
Encoding: 931 931 468
Width: 1075
VWidth: 1947
Flags: MW
LayerCount: 2
Fore
SplineSet
109 1425 m 5
 969 1425 l 5
 969 -25 l 5
 109 -25 l 5
 109 1425 l 5
967 50 m 5
 158 50 l 5
 539 734 l 5
 158 1325 l 5
 967 1325 l 5
EndSplineSet
EndChar

StartChar: Psi
Encoding: 936 936 473
Width: 1075
VWidth: 1947
Flags: MW
LayerCount: 2
Fore
SplineSet
884 1350 m 29
 884 728 l 22
 884 612 798 512 671 512 c 14
 405 512 l 22
 291 512 192 632 192 728 c 14
 192 1350 l 29
538 1425 m 29
 538 -24 l 29
EndSplineSet
EndChar

StartChar: Omega
Encoding: 937 937 474
Width: 1075
VWidth: 1947
Flags: MW
LayerCount: 2
Fore
SplineSet
109 75 m 5
 372 75 l 4
 372 323 l 5
 243 430 204 622 204 817 c 6
 204 872 l 6
 204 1118 264 1351 531 1351 c 6
 545 1351 l 6
 814 1351 872 1117 872 874 c 6
 872 817 l 6
 872 623 833 415 704 323 c 5
 704 75 l 5
 967 75 l 29
EndSplineSet
EndChar

StartChar: alpha
Encoding: 945 945 483
Width: 1075
VWidth: 1947
Flags: MW
LayerCount: 2
Fore
SplineSet
857 1024 m 5
 680.79 191 l 6
 660.337 98.026 596 35 488 35 c 7
 327.847 35 249 243.998 249 513 c 7
 249 780.002 327.922 988 488 988 c 7
 596.005 988 661.165 922.814 681.436 832 c 6
 860 0 l 21
EndSplineSet
EndChar

StartChar: beta
Encoding: 946 946 484
Width: 1075
VWidth: 2334
Flags: MW
LayerCount: 2
Fore
SplineSet
215 -321 m 29
 215 719 l 22
 215 898 320 974 528 974 c 14
 532 974 l 22
 740 974 844 899 844 784 c 7
 844 669 740 549 532 549 c 6
 469 549 l 5
 570 549 l 6
 777 549 882 458 882 325 c 14
 882 259 l 22
 882 124 778 50 571 50 c 14
 528 50 l 22
 320 50 215 124 215 259 c 14
EndSplineSet
EndChar

StartChar: gamma
Encoding: 947 947 485
Width: 1075
VWidth: 2334
Flags: MW
LayerCount: 2
Fore
SplineSet
5 1024 m 5
 1071 1024 l 5
 1071 -386 l 5
 5 -386 l 5
 5 1024 l 5
539 -386 m 29
 539 108 l 29
195 1086 m 29
 538 49 l 29
 876 1069 l 29
EndSplineSet
EndChar

StartChar: delta
Encoding: 948 948 486
Width: 1075
VWidth: 2334
Flags: MW
LayerCount: 2
Fore
SplineSet
144 1455 m 1
 1071 1455 l 1
 1071 -51 l 1
 5 -51 l 1
 5 1098 l 1
 144 1098 l 1
 144 1455 l 1
860 1325 m 25
 192 1325 l 25
 738 912 l 25
215 597 m 10
 215 427 l 18
 215 201 354 50 528 50 c 10
 548 50 l 18
 756 50 860 201 860 427 c 10
 860 597 l 18
 860 821 756 974 548 974 c 10
 528 974 l 18
 320 974 215 821 215 597 c 10
EndSplineSet
EndChar

StartChar: epsilon
Encoding: 949 949 487
Width: 1075
VWidth: 2334
Flags: W
LayerCount: 2
Fore
SplineSet
828 900 m 5
 787 950 696 974 572 974 c 14
 528 974 l 22
 320 974 215 899 215 764 c 7
 215 655 313 533 532 533 c 14
 708 533 l 29
 532 533 l 22
 313 533 215 402 215 317 c 14
 215 300 l 22
 215 156 320 50 528 50 c 14
 572 50 l 22
 704 50 773 66 826 124 c 5
EndSplineSet
EndChar

StartChar: zeta
Encoding: 950 950 488
Width: 1075
VWidth: 2334
Flags: MW
LayerCount: 2
Fore
SplineSet
5 1389 m 5
 944 1389 l 5
 944 512 l 5
 1071 512 l 5
 1071 -411 l 5
 5 -411 l 5
 5 1389 l 5
435 1049 m 21
 548 957 728 949 884 949 c 5
 829 889 739 834 664 788 c 6
 427 627 l 6
 323 557 215 467 215 357 c 14
 215 337 l 22
 215 156 320 50 528 50 c 14
 548 50 l 22
 756 50 860 0 860 -104 c 7
 860 -263 756 -294 538 -294 c 13
EndSplineSet
EndChar

StartChar: eta
Encoding: 951 951 489
Width: 1075
VWidth: 2334
Flags: MW
LayerCount: 2
Fore
SplineSet
860 -387 m 29
 860 719 l 22
 860 898 756 974 548 974 c 14
 528 974 l 22
 345 974 215 731 215 597 c 14
 215 513 l 29
215 1024 m 29
 215 0 l 29
EndSplineSet
EndChar

StartChar: theta
Encoding: 952 952 490
Width: 1075
VWidth: 1947
Flags: MW
LayerCount: 2
Fore
SplineSet
558 973 m 6
 771 973 872 800 872 562 c 6
 872 470 l 6
 872 226 774 50 555 50 c 6
 515 50 l 6
 301 50 204 230 204 471 c 6
 204 561 l 6
 204 798 302 973 513 973 c 6
 558 973 l 6
202 512 m 21
 311 512 765 512 874 512 c 13
EndSplineSet
EndChar

StartChar: lambda
Encoding: 955 955 491
Width: 1075
VWidth: 2334
Flags: MW
LayerCount: 2
Fore
SplineSet
5 0 m 5
 5 1410 l 5
 1071 1410 l 5
 1071 0 l 5
 5 0 l 5
361 1527 m 29
 538 975 l 29
195 -62 m 29
 538 975 l 29
 876 -45 l 29
EndSplineSet
EndChar

StartChar: xi
Encoding: 958 958 494
Width: 1075
VWidth: 2334
Flags: MW
LayerCount: 2
Fore
SplineSet
5 1425 m 5
 814 1425 l 5
 814 804 l 5
 1071 804 l 5
 1071 -410 l 5
 5 -410 l 5
 5 1425 l 5
535 -294 m 21
 662 -294 860 -220 860 -120 c 14
 860 -88 l 22
 860 -8 652 50 572 50 c 14
 528 50 l 22
 320 50 215 156 215 300 c 14
 215 317 l 22
 215 402 313 533 532 533 c 14
 754 533 l 29
 532 533 l 22
 313 533 215 655 215 764 c 4
 215 1027 535 954 722 1077 c 5
 561 1083 428 1151 326 1244 c 13
EndSplineSet
EndChar

StartChar: pi
Encoding: 960 960 496
Width: 1075
VWidth: 2334
Flags: MW
LayerCount: 2
Fore
SplineSet
109 1350 m 5
 967 1350 l 5
 967 0 l 5
 109 0 l 5
 109 1350 l 5
17 844 m 21
 86 910 174 949 343 949 c 6
 733 949 l 6
 907 949 1004 988 1059 1062 c 13
756 949 m 29
 756 168 l 22
 756 45 817 -80 909 -142 c 13
167 -142 m 21
 252 -80 320 64 320 168 c 14
 320 949 l 29
EndSplineSet
EndChar

StartChar: rho
Encoding: 961 961 497
Width: 1075
VWidth: 2334
Flags: MW
LayerCount: 2
Fore
SplineSet
215 -386 m 29
 215 514 l 29
860 427 m 14
 860 597 l 22
 860 823 722 974 548 974 c 14
 528 974 l 22
 320 974 215 823 215 597 c 14
 215 427 l 22
 215 203 320 50 528 50 c 14
 548 50 l 22
 756 50 860 203 860 427 c 14
EndSplineSet
EndChar

StartChar: sigmafinal
Encoding: 962 962 498
Width: 1075
VWidth: 2059
Flags: MW
LayerCount: 2
Fore
SplineSet
910 919 m 9
 863 934 l 18
 786 959 713 971 646 971 c 0
 385 971 215 812 215 597 c 10
 215 427 l 18
 215 201 354 50 528 50 c 10
 548 50 l 18
 704 50 860 -0 860 -92 c 2
 860 -111 l 2
 860 -227 731 -294 535 -294 c 9
EndSplineSet
EndChar

StartChar: sigma
Encoding: 963 963 499
Width: 1075
VWidth: 1947
Flags: MW
LayerCount: 2
Fore
SplineSet
546 973 m 6
 759 973 849 800 849 562 c 6
 849 470 l 6
 849 226 762 50 544 50 c 6
 503 50 l 6
 290 50 204 230 204 471 c 6
 204 561 l 6
 204 798 290 973 501 973 c 6
 546 973 l 6
1003 933 m 29
 731 932 l 29
EndSplineSet
EndChar

StartChar: tau
Encoding: 964 964 500
Width: 1075
VWidth: 2334
Flags: MW
LayerCount: 2
Fore
SplineSet
109 1350 m 5
 967 1350 l 5
 967 0 l 5
 109 0 l 5
 109 1350 l 5
17 774 m 21
 61 852 174 949 343 949 c 6
 733 949 l 6
 907 949 1028 1089 1059 1162 c 13
281 -142 m 21
 390 -110 538 120 538 358 c 6
 538 949 l 13
EndSplineSet
EndChar

StartChar: upsilon
Encoding: 965 965 501
Width: 1075
VWidth: 1947
Flags: MW
LayerCount: 2
Fore
SplineSet
573 973 m 7
 817 973 872 780 872 513 c 7
 872 244 781 50 538 50 c 7
 295 50 215 244 215 513 c 4
 215 1023 l 5
EndSplineSet
EndChar

StartChar: phi
Encoding: 966 966 502
Width: 1075
VWidth: 1947
Flags: MW
LayerCount: 2
Fore
SplineSet
538 -386 m 5
 538 734 l 6
 538 898 612 973 704 973 c 7
 850 973 918 780 918 513 c 7
 918 244 781 50 538 50 c 7
 295 50 158 244 158 513 c 6
 158 973 l 5
EndSplineSet
EndChar

StartChar: chi
Encoding: 967 967 503
Width: 1075
VWidth: 2062
Flags: MW
LayerCount: 2
Fore
SplineSet
5 1023 m 5
 1071 1023 l 5
 1071 -387 l 5
 5 -387 l 5
 5 1023 l 5
967 1328 m 29
 109 -690 l 21
-71 1275 m 5
 -16 1266 90 1180 144 1107 c 6
 277 945 l 6
 342 873 417 709 459 561 c 6
 573 156 l 6
 625 -28 710 -230 790 -309 c 6
 931 -446 l 6
 976 -490 1041 -517 1108 -543 c 13
EndSplineSet
EndChar

StartChar: psi
Encoding: 968 968 504
Width: 1075
VWidth: 1947
Flags: MW
LayerCount: 2
Fore
SplineSet
538 -386 m 5
 538 1049 l 21
918 973 m 4
 918 513 l 7
 918 261 781 50 538 50 c 7
 295 50 158 244 158 513 c 6
 158 973 l 5
EndSplineSet
EndChar

StartChar: omega
Encoding: 969 969 505
Width: 1075
VWidth: 2334
Flags: MW
LayerCount: 2
Fore
SplineSet
5 -114 m 5
 5 1024 l 5
 1071 1024 l 5
 1071 -114 l 5
 5 -114 l 5
372 1166 m 21
 227 975 l 6
 169 905 169 815 169 734 c 14
 169 336 l 22
 169 198 237 50 338 50 c 14
 350 50 l 22
 463 50 538 84 538 215 c 14
 538 732 l 29
 538 215 l 22
 538 84 627 50 722 50 c 14
 733 50 l 22
 847 50 907 198 907 337 c 14
 907 734 l 22
 907 816 904 910 848 978 c 6
 704 1164 l 13
EndSplineSet
EndChar

StartChar: dieresiscmb
Encoding: 776 776 508
Width: 1075
VWidth: 1947
Flags: MW
LayerCount: 2
Fore
SplineSet
435 1386 m 0
 435 1339 396 1296 350 1296 c 0
 304 1296 264 1336 264 1386 c 0
 264 1438 306 1472 349 1472 c 0
 398 1472 435 1432 435 1386 c 0
811 1386 m 0
 811 1334 770 1296 727 1296 c 0
 682 1296 642 1337 642 1386 c 0
 642 1436 682 1472 727 1472 c 0
 768 1472 811 1438 811 1386 c 0
EndSplineSet
EndChar

StartChar: Djecyrillic
Encoding: 1026 1026 512
Width: 1075
VWidth: 2334
Flags: MW
LayerCount: 2
Fore
SplineSet
424 231 m 29
 424 417 l 22
 424 723 590 904 678 904 c 14
 699 904 l 22
 813 904 895 857 895 719 c 6
 895 336 l 6
 895 226 860 75 728 75 c 14
 707 75 l 29
424 1325 m 29
 424 0 l 29
86 1325 m 29
 863 1325 l 29
EndSplineSet
EndChar

StartChar: Ljecyrillic
Encoding: 1033 1033 513
Width: 1075
VWidth: 1947
Flags: MW
LayerCount: 2
Fore
SplineSet
5 1425 m 5
 1071 1425 l 5
 1071 -100 l 5
 347 -100 l 5
 347 0 l 5
 5 0 l 5
 5 1425 l 5
140 -126 m 29
 262 1075 l 22
 272 1184 341 1325 390 1325 c 14
 551 1325 l 5
 551 75 l 5
 629 75 l 6
 848 75 941 158 941 337 c 6
 941 495 l 6
 941 676 837 797 629 797 c 6
 551 797 l 29
EndSplineSet
EndChar

StartChar: Njecyrillic
Encoding: 1034 1034 514
Width: 1075
VWidth: 1947
Flags: MW
LayerCount: 2
Fore
SplineSet
159 1400 m 29
 158 0 l 29
158 797 m 29
 629 797 l 6
 837 797 941 676 941 495 c 6
 941 337 l 6
 941 158 848 75 629 75 c 6
 551 75 l 5
 551 1400 l 5
EndSplineSet
EndChar

StartChar: Tshecyrillic
Encoding: 1035 1035 515
Width: 1075
VWidth: 2334
Flags: MW
LayerCount: 2
Fore
SplineSet
895 0 m 29
 895 719 l 22
 895 857 813 904 699 904 c 14
 678 904 l 22
 590 904 424 755 424 417 c 14
 424 231 l 29
424 1325 m 29
 424 0 l 29
86 1325 m 29
 863 1325 l 29
EndSplineSet
EndChar

StartChar: Dzhecyrillic
Encoding: 1039 1039 516
Width: 1075
VWidth: 2334
Flags: MW
LayerCount: 2
Fore
SplineSet
538 107 m 29
 538 -386 l 29
215 1400 m 29
 215 75 l 29
 860 75 l 21
 860 1400 l 13
EndSplineSet
EndChar

StartChar: djecyrillic
Encoding: 1106 1106 517
Width: 1075
VWidth: 2334
Flags: MW
LayerCount: 2
Fore
SplineSet
40 1185 m 29
 704 1185 l 29
387 -228 m 5
 427 -271 489 -294 554 -294 c 14
 613 -294 l 22
 768 -294 860 -170 860 -28 c 14
 860 553 l 22
 860 732 814 855 606 855 c 14
 585 855 l 22
 403 855 273 597 273 463 c 14
 273 379 l 29
273 1424 m 29
 273 0 l 29
EndSplineSet
EndChar

StartChar: dzhecyrillic
Encoding: 1119 1119 519
Width: 1075
VWidth: 2334
Flags: MW
LayerCount: 2
Fore
SplineSet
538 -386 m 29
 538 108 l 29
217 1023 m 29
 215 76 l 29
 860 76 l 29
 860 1023 l 29
EndSplineSet
EndChar

StartChar: ljecyrillic
Encoding: 1113 1113 520
Width: 1075
VWidth: 1947
Flags: MW
LayerCount: 2
Fore
SplineSet
5 1048 m 5
 1071 1048 l 5
 1071 0 l 5
 5 0 l 5
 5 1048 l 5
147 -99 m 20
 196 615 l 6
 206 764 240 900 381 948 c 13
 540 948 l 29
 539 75 l 29
 699 75 l 22
 808 75 907 124 907 259 c 6
 907 337 l 6
 907 438 808 561 699 561 c 14
 539 561 l 29
EndSplineSet
EndChar

StartChar: njecyrillic
Encoding: 1114 1114 521
Width: 1075
VWidth: 1947
Flags: MW
LayerCount: 2
Fore
SplineSet
169 1024 m 29
 169 0 l 29
539 1024 m 29
 539 75 l 29
 699 75 l 22
 808 75 907 124 907 259 c 6
 907 337 l 6
 907 438 808 561 699 561 c 14
 539 561 l 29
 169 561 l 29
EndSplineSet
EndChar

StartChar: apostrophereverse
Encoding: 8219 8219 523
Width: 1075
VWidth: 1708
Flags: W
LayerCount: 2
Fore
SplineSet
441 1330 m 17
 442 1198 460 1012 690 986 c 9
 705 1041 l 17
 653.328 1059.72 560.718 1118.82 560.718 1184.7 c 0
 560.718 1206.79 571.133 1229.65 597 1252 c 9
 441 1330 l 17
441.375 1330 m 0
 441.375 1278.25 481.125 1232.5 538.875 1232.5 c 0
 594.375 1232.5 635.625 1277.5 635.625 1330 c 0
 635.625 1381 597.375 1427.5 538.875 1427.5 c 0
 481.875 1427.5 441.375 1382.5 441.375 1330 c 0
EndSplineSet
EndChar

StartChar: arrowleft
Encoding: 8592 8592 526
Width: 1075
VWidth: 1708
Flags: W
LayerCount: 2
Fore
SplineSet
999 -99 m 5
 127 -99 l 5
 127 1256 l 5
 999 1256 l 5
 999 -99 l 5
538 992 m 29
 167 600 l 29
 538 208 l 29
167 600 m 29
 949 600 l 29
EndSplineSet
EndChar

StartChar: arrowright
Encoding: 8594 8594 527
Width: 1075
VWidth: 1708
Flags: MW
LayerCount: 2
Fore
SplineSet
77 -99 m 1
 77 1256 l 1
 949 1256 l 1
 949 -99 l 1
 77 -99 l 1
538 992 m 25
 909 600 l 25
 538 208 l 25
909 600 m 25
 127 600 l 25
EndSplineSet
EndChar

StartChar: lthorizform
Encoding: 9472 9472 528
Width: 1075
Flags: W
LayerCount: 2
Fore
SplineSet
1075 523 m 1
 -0 523 l 1
EndSplineSet
EndChar

StartChar: ltvertform
Encoding: 9474 9474 529
Width: 1075
Flags: W
LayerCount: 2
Fore
SplineSet
538 1775 m 1
 538 -615 l 1
EndSplineSet
EndChar

StartChar: rightanglenw
Encoding: 9484 9484 530
Width: 1075
Flags: W
LayerCount: 2
Fore
SplineSet
538 -615 m 1
 538 523 l 1
 1075 523 l 1
EndSplineSet
EndChar

StartChar: rightanglene
Encoding: 9488 9488 531
Width: 1075
Flags: W
LayerCount: 2
Fore
SplineSet
538 -615 m 1
 538 523 l 1
 -0 523 l 1
EndSplineSet
EndChar

StartChar: rightanglesw
Encoding: 9492 9492 532
Width: 1075
Flags: W
LayerCount: 2
Fore
SplineSet
538 1775 m 5
 538 523 l 1
 1075 523 l 1
EndSplineSet
EndChar

StartChar: rightanglese
Encoding: 9496 9496 533
Width: 1075
Flags: W
LayerCount: 2
Fore
SplineSet
538 1775 m 5
 538 523 l 1
 -0 523 l 1
EndSplineSet
EndChar

StartChar: ltvertrightform
Encoding: 9500 9500 534
Width: 1075
Flags: W
LayerCount: 2
Fore
SplineSet
538 1775 m 5
 538 -615 l 1
1075 523 m 1
 538 523 l 1
EndSplineSet
EndChar

StartChar: ltvertleftform
Encoding: 9508 9508 535
Width: 1075
Flags: W
LayerCount: 2
Fore
SplineSet
538 1775 m 5
 538 -615 l 1
538 523 m 1
 -0 523 l 1
EndSplineSet
EndChar

StartChar: ltdnhorizform
Encoding: 9516 9516 536
Width: 1075
Flags: W
LayerCount: 2
Fore
SplineSet
538 523 m 1
 538 -615 l 1
1075 523 m 1
 -0 523 l 1
EndSplineSet
EndChar

StartChar: ltuphorizform
Encoding: 9524 9524 537
Width: 1075
Flags: W
LayerCount: 2
Fore
SplineSet
538 1775 m 5
 538 523 l 1
1075 523 m 1
 -0 523 l 1
EndSplineSet
EndChar

StartChar: ltverthorizform
Encoding: 9532 9532 538
Width: 1075
Flags: W
LayerCount: 2
Fore
SplineSet
538 1775 m 5
 538 -615 l 1
1075 523 m 1
 -0 523 l 1
EndSplineSet
EndChar

StartChar: horizdblbar
Encoding: 9552 9552 539
Width: 1075
Flags: W
LayerCount: 2
Fore
SplineSet
1075 363 m 1
 0 363 l 1
1075 715 m 1
 0 715 l 1
EndSplineSet
EndChar

StartChar: vertdblbar
Encoding: 9553 9553 540
Width: 1075
Flags: W
LayerCount: 2
Fore
SplineSet
378 1775 m 5
 378 -615 l 1
698 1775 m 5
 698 -615 l 1
EndSplineSet
EndChar

StartChar: dnrtdblform
Encoding: 9554 9554 541
Width: 1075
Flags: W
LayerCount: 2
Fore
SplineSet
1075 363 m 1
 538 363 l 1
1075 715 m 1
 538 715 l 1
 538 -615 l 1
EndSplineSet
EndChar

StartChar: dndblrtform
Encoding: 9555 9555 542
Width: 1075
Flags: W
LayerCount: 2
Fore
SplineSet
378 -615 m 1
 378 523 l 1
 1075 523 l 1
698 523 m 1
 698 -615 l 1
EndSplineSet
EndChar

StartChar: dbldnrtform
Encoding: 9556 9556 543
Width: 1075
Flags: W
LayerCount: 2
Fore
SplineSet
1075 363 m 1
 698 363 l 1
 698 -615 l 1
1075 715 m 1
 378 715 l 1
 378 -615 l 1
EndSplineSet
EndChar

StartChar: dnleftdblform
Encoding: 9557 9557 544
Width: 1075
Flags: W
LayerCount: 2
Fore
SplineSet
538 363 m 1
 0 363 l 1
0 715 m 1
 538 715 l 1
 538 -615 l 1
EndSplineSet
EndChar

StartChar: dndblleftform
Encoding: 9558 9558 545
Width: 1075
Flags: W
LayerCount: 2
Fore
SplineSet
378 523 m 1
 378 -615 l 1
698 -615 m 1
 698 523 l 1
 -0 523 l 1
EndSplineSet
EndChar

StartChar: dbldnleftform
Encoding: 9559 9559 546
Width: 1075
Flags: W
LayerCount: 2
Fore
SplineSet
0 363 m 1
 378 363 l 1
 378 -615 l 1
0 715 m 1
 698 715 l 1
 698 -615 l 1
EndSplineSet
EndChar

StartChar: uprtdblform
Encoding: 9560 9560 547
Width: 1075
Flags: W
LayerCount: 2
Fore
SplineSet
1075 363 m 1
 538 363 l 1
 538 1775 l 5
1075 683 m 1
 538 683 l 1
EndSplineSet
EndChar

StartChar: updblrtform
Encoding: 9561 9561 548
Width: 1075
Flags: W
LayerCount: 2
Fore
SplineSet
378 1775 m 5
 378 523 l 1
 1075 523 l 1
698 1775 m 5
 698 523 l 1
EndSplineSet
EndChar

StartChar: dbluprtform
Encoding: 9562 9562 549
Width: 1075
Flags: W
LayerCount: 2
Fore
SplineSet
1075 363 m 1
 378 363 l 1
 378 1775 l 5
1075 715 m 1
 698 715 l 1
 698 1775 l 5
EndSplineSet
EndChar

StartChar: upleftdblform
Encoding: 9563 9563 550
Width: 1075
Flags: W
LayerCount: 2
Fore
SplineSet
0 363 m 1
 538 363 l 1
 538 1775 l 5
538 683 m 1
 0 683 l 1
EndSplineSet
EndChar

StartChar: updblleftform
Encoding: 9564 9564 551
Width: 1075
Flags: W
LayerCount: 2
Fore
SplineSet
378 1775 m 5
 378 523 l 1
698 1775 m 5
 698 523 l 1
 -0 523 l 1
EndSplineSet
EndChar

StartChar: dblupleftform
Encoding: 9565 9565 552
Width: 1075
Flags: W
LayerCount: 2
Fore
SplineSet
0 363 m 1
 698 363 l 1
 698 1775 l 5
0 715 m 1
 378 715 l 1
 378 1775 l 5
EndSplineSet
EndChar

StartChar: vertrtdblform
Encoding: 9566 9566 553
Width: 1075
Flags: W
LayerCount: 2
Fore
SplineSet
1075 363 m 1
 538 363 l 1
1075 683 m 1
 538 683 l 1
538 1775 m 5
 538 -615 l 1
EndSplineSet
EndChar

StartChar: vertdblrtform
Encoding: 9567 9567 554
Width: 1075
Flags: W
LayerCount: 2
Fore
SplineSet
378 1775 m 1
 378 -615 l 1
698 1775 m 1
 698 -615 l 1
1075 523 m 1
 698 523 l 1
EndSplineSet
EndChar

StartChar: dblvertrtform
Encoding: 9568 9568 555
Width: 1075
Flags: W
LayerCount: 2
Fore
SplineSet
1075 363 m 1
 698 363 l 1
 698 -615 l 1
1075 715 m 1
 698 715 l 1
 698 1775 l 5
378 1775 m 5
 378 -615 l 1
EndSplineSet
EndChar

StartChar: vertleftdblform
Encoding: 9569 9569 556
Width: 1075
Flags: W
LayerCount: 2
Fore
SplineSet
538 363 m 1
 0 363 l 1
538 683 m 1
 0 683 l 1
538 1775 m 5
 538 -615 l 1
EndSplineSet
EndChar

StartChar: vertdblleftform
Encoding: 9570 9570 557
Width: 1075
Flags: W
LayerCount: 2
Fore
SplineSet
378 1775 m 5
 378 -615 l 1
698 1775 m 5
 698 -615 l 1
378 523 m 1
 -0 523 l 1
EndSplineSet
EndChar

StartChar: dblvertleftform
Encoding: 9571 9571 558
Width: 1075
Flags: W
LayerCount: 2
Fore
SplineSet
0 363 m 1
 378 363 l 1
 378 -615 l 1
0 715 m 1
 378 715 l 1
 378 1775 l 5
698 1775 m 5
 698 -615 l 1
EndSplineSet
EndChar

StartChar: dnhorizdblform
Encoding: 9572 9572 559
Width: 1075
Flags: W
LayerCount: 2
Fore
SplineSet
1075 363 m 1
 0 363 l 1
1075 715 m 1
 0 715 l 1
538 363 m 1
 538 -615 l 1
EndSplineSet
EndChar

StartChar: dndblhorizform
Encoding: 9573 9573 560
Width: 1075
Flags: W
LayerCount: 2
Fore
SplineSet
378 523 m 1
 378 -615 l 1
698 523 m 1
 698 -615 l 1
1075 523 m 1
 0 523 l 1
EndSplineSet
EndChar

StartChar: dbldnhorizform
Encoding: 9574 9574 561
Width: 1075
Flags: W
LayerCount: 2
Fore
SplineSet
1075 363 m 1
 698 363 l 1
 698 -615 l 1
0 363 m 1
 378 363 l 1
 378 -615 l 1
1075 715 m 1
 0 715 l 1
EndSplineSet
EndChar

StartChar: uphorizdblform
Encoding: 9575 9575 562
Width: 1075
Flags: W
LayerCount: 2
Fore
SplineSet
1075 363 m 1
 0 363 l 1
1075 715 m 1
 0 715 l 1
538 1775 m 5
 538 715 l 1
EndSplineSet
EndChar

StartChar: updblhorizform
Encoding: 9576 9576 563
Width: 1075
Flags: W
LayerCount: 2
Fore
SplineSet
378 1775 m 5
 378 523 l 1
698 1775 m 5
 698 523 l 1
1075 523 m 1
 -0 523 l 1
EndSplineSet
EndChar

StartChar: dbluphorizform
Encoding: 9577 9577 564
Width: 1075
Flags: W
LayerCount: 2
Fore
SplineSet
1075 363 m 1
 0 363 l 1
1075 715 m 1
 698 715 l 1
 698 1775 l 5
0 715 m 1
 378 715 l 1
 378 1775 l 5
EndSplineSet
EndChar

StartChar: verthorizdblform
Encoding: 9578 9578 565
Width: 1075
Flags: W
LayerCount: 2
Fore
SplineSet
1075 363 m 1
 0 363 l 1
1075 715 m 1
 0 715 l 1
538 1775 m 1
 538 715 l 1
538 363 m 1
 538 -615 l 1
EndSplineSet
EndChar

StartChar: vertdblhorizform
Encoding: 9579 9579 566
Width: 1075
Flags: W
LayerCount: 2
Fore
SplineSet
378 1775 m 1
 378 -615 l 1
698 1775 m 1
 698 -615 l 1
1075 523 m 1
 698 523 l 1
378 523 m 1
 -0 523 l 1
EndSplineSet
EndChar

StartChar: dblverthorizform
Encoding: 9580 9580 567
Width: 1075
Flags: W
LayerCount: 2
Fore
SplineSet
1075 363 m 1
 698 363 l 1
 698 -615 l 1
0 363 m 1
 378 363 l 1
 378 -615 l 1
1075 715 m 1
 698 715 l 1
 698 1775 l 5
0 715 m 1
 378 715 l 1
 378 1775 l 5
EndSplineSet
EndChar

StartChar: upblock
Encoding: 9600 9600 568
Width: 1075
Flags: W
VStem: -0 922<523 1775>
LayerCount: 2
Fore
SplineSet
1075 523 m 1
 -0 523 l 1
 0 1775 l 5
 1075 1775 l 5
 1075 523 l 1
EndSplineSet
EndChar

StartChar: dnblock
Encoding: 9604 9604 569
Width: 1075
Flags: W
HStem: -615 1138<0 922>
VStem: -0 922<-615 523>
LayerCount: 2
Fore
SplineSet
1075 -615 m 1
 -0 -615 l 1
 -0 523 l 1
 1075 523 l 1
 1075 -615 l 1
EndSplineSet
EndChar

StartChar: block
Encoding: 9608 9608 570
Width: 1075
Flags: W
VStem: -0 922<-615 1775>
LayerCount: 2
Fore
SplineSet
-0 -615 m 1
 0 1775 l 5
 1075 1775 l 5
 1075 -615 l 1
 -0 -615 l 1
EndSplineSet
EndChar

StartChar: lfblock
Encoding: 9612 9612 571
Width: 1075
Flags: W
VStem: -0 461<-615 1775>
LayerCount: 2
Fore
SplineSet
-0 -615 m 1
 0 1775 l 5
 538 1775 l 5
 538 -615 l 1
 -0 -615 l 1
EndSplineSet
EndChar

StartChar: rtblock
Encoding: 9616 9616 572
Width: 1075
Flags: W
VStem: 461 461<-615 1775>
LayerCount: 2
Fore
SplineSet
538 -615 m 1
 538 1775 l 1
 1075 1775 l 1
 1075 -615 l 1
 538 -615 l 1
EndSplineSet
EndChar

StartChar: shadelight
Encoding: 9617 9617 573
Width: 1075
Flags: W
HStem: -514 100<153 230 461 540 769 846> -315 100<0 77 307 385 616 693> -115 99<153 230 461 540 769 846> 83 100<0 77 307 385 616 693> 283 99<153 230 461 540 769 846> 482 99<0 77 307 385 616 693> 681 100<153 230 461 540 769 846> 881 99<0 77 307 385 616 693> 1080 99<153 230 461 540 769 846> 1278 100<0 77 307 385 616 693> 1477 100<153 230 461 540 769 846> 1677 98<0 77 307 385 616 693>
VStem: 0 77<-315 -215 83 183 482 581 881 980 1278 1378 1677 1775> 153 77<-514 -414 -115 -16 283 382 681 781 1080 1179 1477 1577> 307 78<-315 -215 83 183 482 581 881 980 1278 1378 1677 1775> 461 79<-514 -414 -115 -16 283 382 681 781 1080 1179 1477 1577> 616 77<-315 -215 83 183 482 581 881 980 1278 1378 1677 1775> 769 77<-514 -414 -115 -16 283 382 681 781 1080 1179 1477 1577>
LayerCount: 2
Fore
SplineSet
0 1378 m 1
 90 1378 l 1
 90 1278 l 1
 0 1278 l 1
 0 1378 l 1
358 1378 m 1
 449 1378 l 1
 449 1278 l 1
 358 1278 l 1
 358 1378 l 1
719 1378 m 1
 808 1378 l 1
 808 1278 l 1
 719 1278 l 1
 719 1378 l 1
179 1179 m 1
 269 1179 l 1
 269 1080 l 1
 179 1080 l 1
 179 1179 l 1
538 1179 m 1
 630 1179 l 1
 630 1080 l 1
 538 1080 l 1
 538 1179 l 1
897 1179 m 1
 987 1179 l 1
 987 1080 l 1
 897 1080 l 1
 897 1179 l 1
719 980 m 1
 808 980 l 1
 808 881 l 1
 719 881 l 1
 719 980 l 1
358 980 m 1
 449 980 l 1
 449 881 l 1
 358 881 l 1
 358 980 l 1
0 980 m 1
 90 980 l 1
 90 881 l 1
 0 881 l 1
 0 980 l 1
897 781 m 1
 987 781 l 1
 987 681 l 1
 897 681 l 1
 897 781 l 1
538 781 m 1
 630 781 l 1
 630 681 l 1
 538 681 l 1
 538 781 l 1
179 781 m 1
 269 781 l 1
 269 681 l 1
 179 681 l 1
 179 781 l 1
0 581 m 1
 90 581 l 1
 90 482 l 1
 0 482 l 1
 0 581 l 1
358 581 m 1
 449 581 l 1
 449 482 l 1
 358 482 l 1
 358 581 l 1
719 581 m 1
 808 581 l 1
 808 482 l 1
 719 482 l 1
 719 581 l 1
897 382 m 1
 987 382 l 1
 987 283 l 1
 897 283 l 1
 897 382 l 1
538 382 m 1
 630 382 l 1
 630 283 l 1
 538 283 l 1
 538 382 l 1
179 382 m 1
 269 382 l 1
 269 283 l 1
 179 283 l 1
 179 382 l 1
0 183 m 1
 90 183 l 1
 90 83 l 1
 0 83 l 1
 0 183 l 1
358 183 m 1
 449 183 l 1
 449 83 l 1
 358 83 l 1
 358 183 l 1
719 183 m 1
 808 183 l 1
 808 83 l 1
 719 83 l 1
 719 183 l 1
179 -16 m 1
 269 -16 l 1
 269 -115 l 1
 179 -115 l 1
 179 -16 l 1
538 -16 m 1
 630 -16 l 1
 630 -115 l 1
 538 -115 l 1
 538 -16 l 1
897 -16 m 1
 987 -16 l 1
 987 -115 l 1
 897 -115 l 1
 897 -16 l 1
719 -215 m 1
 808 -215 l 1
 808 -315 l 1
 719 -315 l 1
 719 -215 l 1
358 -215 m 1
 449 -215 l 1
 449 -315 l 1
 358 -315 l 1
 358 -215 l 1
0 -215 m 1
 90 -215 l 1
 90 -315 l 1
 0 -315 l 1
 0 -215 l 1
179 -414 m 1
 269 -414 l 1
 269 -514 l 1
 179 -514 l 1
 179 -414 l 1
538 -414 m 1
 630 -414 l 1
 630 -514 l 1
 538 -514 l 1
 538 -414 l 1
897 -414 m 1
 987 -414 l 1
 987 -514 l 1
 897 -514 l 1
 897 -414 l 1
179 1577 m 1
 269 1577 l 1
 269 1477 l 1
 179 1477 l 1
 179 1577 l 1
538 1577 m 1
 630 1577 l 1
 630 1477 l 1
 538 1477 l 1
 538 1577 l 1
897 1577 m 1
 987 1577 l 1
 987 1477 l 1
 897 1477 l 1
 897 1577 l 1
0 1775 m 1
 90 1775 l 1
 90 1677 l 1
 0 1677 l 1
 0 1775 l 1
358 1775 m 1
 449 1775 l 1
 449 1677 l 1
 358 1677 l 1
 358 1775 l 1
719 1775 m 1
 808 1775 l 1
 808 1677 l 1
 719 1677 l 1
 719 1775 l 1
EndSplineSet
EndChar

StartChar: shademedium
Encoding: 9618 9618 574
Width: 1075
Flags: W
HStem: -514 100<0 77 153 230 307 384 461 539 616 692 769 846> -315 100<77 153 230 307 384 461 539 616 692 769 846 922> -115 99<0 77 153 230 307 384 461 539 616 692 769 846> 83 100<77 153 230 307 384 461 539 616 692 769 846 922> 283 99<0 77 153 230 307 384 461 539 616 692 769 846> 482 99<77 153 230 307 384 461 539 616 692 769 846 922> 681 100<0 77 153 230 307 384 461 539 616 692 769 846> 881 99<77 153 230 307 384 461 539 616 692 769 846 922> 1080 99<0 77 153 230 307 384 461 539 616 692 769 846> 1278 100<77 153 230 307 384 461 539 616 692 769 846 922> 1477 100<0 77 153 230 307 384 461 539 616 692 769 846> 1677 98<77 153 230 307 384 461 539 616 692 769 846 922>
VStem: 0 77<-514 -414 -115 -16 283 382 681 781 1080 1179 1477 1577> 77 76<-315 -215 83 183 482 581 881 980 1278 1378 1677 1775> 153 77<-514 -414 -115 -16 283 382 681 781 1080 1179 1477 1577> 230 77<-315 -215 83 183 482 581 881 980 1278 1378 1677 1775> 307 77<-514 -414 -115 -16 283 382 681 781 1080 1179 1477 1577> 384 77<-315 -215 83 183 482 581 881 980 1278 1378 1677 1775> 461 78<-514 -414 -115 -16 283 382 681 781 1080 1179 1477 1577> 539 77<-315 -215 83 183 482 581 881 980 1278 1378 1677 1775> 616 76<-514 -414 -115 -16 283 382 681 781 1080 1179 1477 1577> 692 77<-315 -215 83 183 482 581 881 980 1278 1378 1677 1775> 769 77<-514 -414 -115 -16 283 382 681 781 1080 1179 1477 1577> 846 76<-315 -215 83 183 482 581 881 980 1278 1378 1677 1775>
LayerCount: 2
Fore
SplineSet
90 1378 m 1
 179 1378 l 1
 179 1278 l 1
 90 1278 l 1
 90 1378 l 1
269 1378 m 1
 358 1378 l 1
 358 1278 l 1
 269 1278 l 1
 269 1378 l 1
448 1378 m 1
 538 1378 l 1
 538 1278 l 1
 448 1278 l 1
 448 1378 l 1
629 1378 m 1
 719 1378 l 1
 719 1278 l 1
 629 1278 l 1
 629 1378 l 1
807 1378 m 1
 897 1378 l 1
 897 1278 l 1
 807 1278 l 1
 807 1378 l 1
987 1378 m 1
 1075 1378 l 1
 1075 1278 l 1
 987 1278 l 1
 987 1378 l 1
0 1179 m 1
 90 1179 l 1
 90 1080 l 1
 0 1080 l 1
 0 1179 l 1
179 1179 m 1
 269 1179 l 1
 269 1080 l 1
 179 1080 l 1
 179 1179 l 1
358 1179 m 1
 448 1179 l 1
 448 1080 l 1
 358 1080 l 1
 358 1179 l 1
538 1179 m 1
 629 1179 l 1
 629 1080 l 1
 538 1080 l 1
 538 1179 l 1
719 1179 m 1
 807 1179 l 1
 807 1080 l 1
 719 1080 l 1
 719 1179 l 1
897 1179 m 1
 987 1179 l 1
 987 1080 l 1
 897 1080 l 1
 897 1179 l 1
90 980 m 1
 179 980 l 1
 179 881 l 1
 90 881 l 1
 90 980 l 1
269 980 m 1
 358 980 l 1
 358 881 l 1
 269 881 l 1
 269 980 l 1
448 980 m 1
 538 980 l 1
 538 881 l 1
 448 881 l 1
 448 980 l 1
629 980 m 1
 719 980 l 1
 719 881 l 1
 629 881 l 1
 629 980 l 1
807 980 m 1
 897 980 l 1
 897 881 l 1
 807 881 l 1
 807 980 l 1
987 980 m 1
 1075 980 l 1
 1075 881 l 1
 987 881 l 1
 987 980 l 1
0 781 m 1
 90 781 l 1
 90 681 l 1
 0 681 l 1
 0 781 l 1
179 781 m 1
 269 781 l 1
 269 681 l 1
 179 681 l 1
 179 781 l 1
358 781 m 1
 448 781 l 1
 448 681 l 1
 358 681 l 1
 358 781 l 1
538 781 m 1
 629 781 l 1
 629 681 l 1
 538 681 l 1
 538 781 l 1
719 781 m 1
 807 781 l 1
 807 681 l 1
 719 681 l 1
 719 781 l 1
897 781 m 1
 987 781 l 1
 987 681 l 1
 897 681 l 1
 897 781 l 1
90 581 m 1
 179 581 l 1
 179 482 l 1
 90 482 l 1
 90 581 l 1
269 581 m 1
 358 581 l 1
 358 482 l 1
 269 482 l 1
 269 581 l 1
448 581 m 1
 538 581 l 1
 538 482 l 1
 448 482 l 1
 448 581 l 1
629 581 m 1
 719 581 l 1
 719 482 l 1
 629 482 l 1
 629 581 l 1
807 581 m 1
 897 581 l 1
 897 482 l 1
 807 482 l 1
 807 581 l 1
987 581 m 1
 1075 581 l 1
 1075 482 l 1
 987 482 l 1
 987 581 l 1
0 382 m 1
 90 382 l 1
 90 283 l 1
 0 283 l 1
 0 382 l 1
358 382 m 1
 448 382 l 1
 448 283 l 1
 358 283 l 1
 358 382 l 1
538 382 m 1
 629 382 l 1
 629 283 l 1
 538 283 l 1
 538 382 l 1
719 382 m 1
 807 382 l 1
 807 283 l 1
 719 283 l 1
 719 382 l 1
897 382 m 1
 987 382 l 1
 987 283 l 1
 897 283 l 1
 897 382 l 1
179 382 m 1
 269 382 l 1
 269 283 l 1
 179 283 l 1
 179 382 l 1
987 183 m 1
 1075 183 l 1
 1075 83 l 1
 987 83 l 1
 987 183 l 1
807 183 m 1
 897 183 l 1
 897 83 l 1
 807 83 l 1
 807 183 l 1
629 183 m 1
 719 183 l 1
 719 83 l 1
 629 83 l 1
 629 183 l 1
448 183 m 1
 538 183 l 1
 538 83 l 1
 448 83 l 1
 448 183 l 1
269 183 m 1
 358 183 l 1
 358 83 l 1
 269 83 l 1
 269 183 l 1
90 183 m 1
 179 183 l 1
 179 83 l 1
 90 83 l 1
 90 183 l 1
0 -16 m 1
 90 -16 l 1
 90 -115 l 1
 0 -115 l 1
 0 -16 l 1
179 -16 m 1
 269 -16 l 1
 269 -115 l 1
 179 -115 l 1
 179 -16 l 1
358 -16 m 1
 448 -16 l 1
 448 -115 l 1
 358 -115 l 1
 358 -16 l 1
538 -16 m 1
 629 -16 l 1
 629 -115 l 1
 538 -115 l 1
 538 -16 l 1
719 -16 m 1
 807 -16 l 1
 807 -115 l 1
 719 -115 l 1
 719 -16 l 1
897 -16 m 1
 987 -16 l 1
 987 -115 l 1
 897 -115 l 1
 897 -16 l 1
987 -215 m 1
 1075 -215 l 1
 1075 -315 l 1
 987 -315 l 1
 987 -215 l 1
807 -215 m 1
 897 -215 l 1
 897 -315 l 1
 807 -315 l 1
 807 -215 l 1
629 -215 m 1
 719 -215 l 1
 719 -315 l 1
 629 -315 l 1
 629 -215 l 1
448 -215 m 1
 538 -215 l 1
 538 -315 l 1
 448 -315 l 1
 448 -215 l 1
269 -215 m 1
 358 -215 l 1
 358 -315 l 1
 269 -315 l 1
 269 -215 l 1
90 -215 m 1
 179 -215 l 1
 179 -315 l 1
 90 -315 l 1
 90 -215 l 1
0 -414 m 1
 90 -414 l 1
 90 -514 l 1
 0 -514 l 1
 0 -414 l 1
179 -414 m 1
 269 -414 l 1
 269 -514 l 1
 179 -514 l 1
 179 -414 l 1
358 -414 m 1
 448 -414 l 1
 448 -514 l 1
 358 -514 l 1
 358 -414 l 1
538 -414 m 1
 629 -414 l 1
 629 -514 l 1
 538 -514 l 1
 538 -414 l 1
719 -414 m 1
 807 -414 l 1
 807 -514 l 1
 719 -514 l 1
 719 -414 l 1
897 -414 m 1
 987 -414 l 1
 987 -514 l 1
 897 -514 l 1
 897 -414 l 1
0 1577 m 1
 90 1577 l 1
 90 1477 l 1
 0 1477 l 1
 0 1577 l 1
179 1577 m 1
 269 1577 l 1
 269 1477 l 1
 179 1477 l 1
 179 1577 l 1
358 1577 m 1
 448 1577 l 1
 448 1477 l 1
 358 1477 l 1
 358 1577 l 1
538 1577 m 1
 629 1577 l 1
 629 1477 l 1
 538 1477 l 1
 538 1577 l 1
719 1577 m 1
 807 1577 l 1
 807 1477 l 1
 719 1477 l 1
 719 1577 l 1
897 1577 m 1
 987 1577 l 1
 987 1477 l 1
 897 1477 l 1
 897 1577 l 1
90 1775 m 1
 179 1775 l 1
 179 1677 l 1
 90 1677 l 1
 90 1775 l 1
269 1775 m 1
 358 1775 l 1
 358 1677 l 1
 269 1677 l 1
 269 1775 l 1
448 1775 m 1
 538 1775 l 1
 538 1677 l 1
 448 1677 l 1
 448 1775 l 1
629 1775 m 1
 719 1775 l 1
 719 1677 l 1
 629 1677 l 1
 629 1775 l 1
807 1775 m 1
 897 1775 l 1
 897 1677 l 1
 807 1677 l 1
 807 1775 l 1
987 1775 m 1
 1075 1775 l 1
 1075 1677 l 1
 987 1677 l 1
 987 1775 l 1
EndSplineSet
EndChar

StartChar: shadedark
Encoding: 9619 9619 575
Width: 1075
Flags: W
HStem: -615 300<0 77 153 230 307 384 461 539 616 692 769 846> -615 101<77 153 230 307 384 461 539 616 692 769 846 922> -414 299<77 153 230 307 384 461 539 616 692 769 846 922> -215 299<0 77 153 230 307 384 461 539 616 692 769 846> -16 299<77 153 230 307 384 461 539 616 692 769 846 922> 183 299<0 77 153 230 307 384 461 539 616 692 769 846> 382 299<77 153 230 307 384 461 539 616 692 769 846 922> 581 299<0 77 153 230 307 384 461 539 616 692 769 846> 781 299<77 153 230 307 384 461 539 616 692 769 846 922> 980 299<0 77 153 230 307 384 461 539 616 692 769 846> 1179 299<77 153 230 307 384 461 539 616 692 769 846 922> 1378 299<0 77 153 230 307 384 461 539 616 692 769 846> 1577 198<77 153 230 307 384 461 539 616 692 769 846 922>
VStem: 0 77<-514 -414 -115 -16 283 382 681 781 1080 1179 1478 1577> 77 76<-315 -215 84 183 482 581 881 980 1279 1378 1677 1775> 153 77<-514 -414 -115 -16 283 382 681 781 1080 1179 1478 1577> 230 77<-315 -215 84 183 482 581 880 980 1279 1378 1677 1775> 307 77<-514 -414 -115 -16 283 382 681 781 1080 1179 1478 1577> 384 77<-315 -215 84 183 482 581 880 980 1279 1378 1677 1775> 461 78<-514 -414 -115 -16 283 382 681 781 1080 1179 1478 1577> 539 77<-315 -215 84 183 482 581 880 980 1279 1378 1677 1775> 616 76<-514 -414 -115 -16 283 382 681 781 1080 1179 1478 1577> 692 77<-315 -215 84 183 482 581 880 980 1279 1378 1677 1775> 769 77<-514 -414 -115 -16 283 382 681 781 1080 1179 1478 1577> 846 76<-315 -215 84 183 482 581 880 980 1279 1378 1677 1775>
LayerCount: 2
Fore
SplineSet
1075 1577 m 1x000fff80
 987 1577 l 1
 987 1478 l 1
 1075 1478 l 1
 1075 1179 l 1
 987 1179 l 1
 987 1080 l 1
 1075 1080 l 1
 1075 781 l 1
 987 781 l 1
 987 681 l 1
 1075 681 l 1
 1075 382 l 1
 987 382 l 1
 987 283 l 1
 1075 283 l 1
 1075 -16 l 1
 987 -16 l 1
 987 -115 l 1
 1075 -115 l 1
 1075 -414 l 1
 987 -414 l 1
 987 -514 l 1
 1075 -514 l 1
 1075 -615 l 1x6aafff80
 0 -615 l 1
 0 -315 l 1
 90 -315 l 1
 90 -215 l 1
 0 -215 l 1
 0 83 l 1
 90 83 l 1
 90 183 l 1
 0 183 l 1
 0 482 l 1
 90 482 l 1
 90 581 l 1
 0 581 l 1
 0 881 l 1
 90 881 l 1
 90 980 l 1
 0 980 l 1
 0 1279 l 1
 90 1279 l 1
 90 1378 l 1
 0 1378 l 1
 0 1677 l 1
 90 1677 l 1x9557ff80
 90 1775 l 1
 179 1775 l 1x000fff80
 179 1677 l 1
 269 1677 l 1x0017ff80
 269 1775 l 1
 358 1775 l 1x000fff80
 358 1677 l 1
 448 1677 l 1x0017ff80
 448 1775 l 1
 538 1775 l 1x000fff80
 538 1677 l 1
 629 1677 l 1x0017ff80
 629 1775 l 1
 719 1775 l 1x000fff80
 719 1677 l 1
 807 1677 l 1x0017ff80
 807 1775 l 1
 897 1775 l 1x000fff80
 897 1677 l 1
 987 1677 l 1x0017ff80
 987 1775 l 1
 1075 1775 l 1
 1075 1577 l 1x000fff80
90 1179 m 1
 90 1080 l 1
 179 1080 l 1
 179 1179 l 1
 90 1179 l 1
269 1179 m 1
 269 1080 l 1
 358 1080 l 1
 358 1179 l 1
 269 1179 l 1
448 1179 m 1
 448 1080 l 1
 538 1080 l 1
 538 1179 l 1
 448 1179 l 1
629 1179 m 1
 629 1080 l 1
 719 1080 l 1
 719 1179 l 1
 629 1179 l 1
807 1179 m 1
 807 1080 l 1
 897 1080 l 1
 897 1179 l 1
 807 1179 l 1
987 980 m 1x0147ff80
 897 980 l 1
 897 880 l 1
 987 880 l 1
 987 980 l 1x0147ff80
807 980 m 1
 719 980 l 1
 719 880 l 1
 807 880 l 1
 807 980 l 1
629 980 m 1
 538 980 l 1
 538 880 l 1
 629 880 l 1
 629 980 l 1
448 980 m 1
 358 980 l 1
 358 880 l 1
 448 880 l 1
 448 980 l 1
269 980 m 1
 179 980 l 1
 179 880 l 1
 269 880 l 1
 269 980 l 1
90 781 m 1x0287ff80
 90 681 l 1
 179 681 l 1
 179 781 l 1
 90 781 l 1x0287ff80
269 781 m 1
 269 681 l 1
 358 681 l 1
 358 781 l 1
 269 781 l 1
448 781 m 1
 448 681 l 1
 538 681 l 1
 538 781 l 1
 448 781 l 1
629 781 m 1
 629 681 l 1
 719 681 l 1
 719 781 l 1
 629 781 l 1
807 781 m 1
 807 681 l 1
 897 681 l 1
 897 781 l 1
 807 781 l 1
269 581 m 1x0507ff80
 179 581 l 1
 179 482 l 1
 269 482 l 1
 269 581 l 1x0507ff80
358 581 m 1
 358 482 l 1
 448 482 l 1
 448 581 l 1
 358 581 l 1
538 581 m 1
 538 482 l 1
 629 482 l 1
 629 581 l 1
 538 581 l 1
719 581 m 1
 719 482 l 1
 807 482 l 1
 807 581 l 1
 719 581 l 1
897 581 m 1
 897 482 l 1
 987 482 l 1
 987 581 l 1
 897 581 l 1
90 382 m 1x0a07ff80
 90 283 l 1
 179 283 l 1
 179 382 l 1
 90 382 l 1x0a07ff80
448 382 m 1
 448 283 l 1
 538 283 l 1
 538 382 l 1
 448 382 l 1
358 283 m 1
 358 382 l 1
 269 382 l 1
 269 283 l 1
 358 283 l 1
629 382 m 1
 629 283 l 1
 719 283 l 1
 719 382 l 1
 629 382 l 1
807 382 m 1
 807 283 l 1
 897 283 l 1
 897 382 l 1
 807 382 l 1
987 84 m 1x1407ff80
 987 183 l 1
 897 183 l 1
 897 84 l 1
 987 84 l 1x1407ff80
807 84 m 1
 807 183 l 1
 719 183 l 1
 719 84 l 1
 807 84 l 1
629 84 m 1
 629 183 l 1
 538 183 l 1
 538 84 l 1
 629 84 l 1
448 84 m 1
 448 183 l 1
 358 183 l 1
 358 84 l 1
 448 84 l 1
269 84 m 1
 269 183 l 1
 179 183 l 1
 179 84 l 1
 269 84 l 1
90 -16 m 1x2807ff80
 90 -115 l 1
 179 -115 l 1
 179 -16 l 1
 90 -16 l 1x2807ff80
269 -16 m 1
 269 -115 l 1
 358 -115 l 1
 358 -16 l 1
 269 -16 l 1
448 -16 m 1
 448 -115 l 1
 538 -115 l 1
 538 -16 l 1
 448 -16 l 1
629 -16 m 1
 629 -115 l 1
 719 -115 l 1
 719 -16 l 1
 629 -16 l 1
807 -16 m 1
 807 -115 l 1
 897 -115 l 1
 897 -16 l 1
 807 -16 l 1
987 -315 m 1x9007ff80
 987 -215 l 1
 897 -215 l 1
 897 -315 l 1
 987 -315 l 1x9007ff80
807 -315 m 1
 807 -215 l 1
 719 -215 l 1
 719 -315 l 1
 807 -315 l 1
629 -315 m 1
 629 -215 l 1
 538 -215 l 1
 538 -315 l 1
 629 -315 l 1
448 -315 m 1
 448 -215 l 1
 358 -215 l 1
 358 -315 l 1
 448 -315 l 1
269 -315 m 1
 269 -215 l 1
 179 -215 l 1
 179 -315 l 1
 269 -315 l 1
90 -414 m 1x6007ff80
 90 -514 l 1
 179 -514 l 1
 179 -414 l 1
 90 -414 l 1x6007ff80
269 -414 m 1
 269 -514 l 1
 358 -514 l 1
 358 -414 l 1
 269 -414 l 1
448 -414 m 1
 448 -514 l 1
 538 -514 l 1
 538 -414 l 1
 448 -414 l 1
629 -414 m 1
 629 -514 l 1
 719 -514 l 1
 719 -414 l 1
 629 -414 l 1
807 -414 m 1
 807 -514 l 1
 897 -514 l 1
 897 -414 l 1
 807 -414 l 1
987 1378 m 1x0057ff80
 897 1378 l 1
 897 1279 l 1
 987 1279 l 1
 987 1378 l 1x0057ff80
807 1378 m 1
 719 1378 l 1
 719 1279 l 1
 807 1279 l 1
 807 1378 l 1
629 1378 m 1
 538 1378 l 1
 538 1279 l 1
 629 1279 l 1
 629 1378 l 1
448 1378 m 1
 358 1378 l 1
 358 1279 l 1
 448 1279 l 1
 448 1378 l 1
269 1378 m 1
 179 1378 l 1
 179 1279 l 1
 269 1279 l 1
 269 1378 l 1
897 1577 m 1x002fff80
 807 1577 l 1
 807 1478 l 1
 897 1478 l 1
 897 1577 l 1x002fff80
719 1577 m 1
 629 1577 l 1
 629 1478 l 1
 719 1478 l 1
 719 1577 l 1
538 1577 m 1
 448 1577 l 1
 448 1478 l 1
 538 1478 l 1
 538 1577 l 1
358 1577 m 1
 269 1577 l 1
 269 1478 l 1
 358 1478 l 1
 358 1577 l 1
179 1577 m 1
 90 1577 l 1
 90 1478 l 1
 179 1478 l 1
 179 1577 l 1
EndSplineSet
EndChar

StartChar: blacksquare
Encoding: 9632 9632 576
Width: 1075
Flags: W
HStem: 84 1057<0 922>
VStem: 0 922<84 1141>
LayerCount: 2
Fore
SplineSet
0 1331 m 5
 1075 1331 l 5
 1075 98 l 5
 0 98 l 5
 0 1331 l 5
EndSplineSet
EndChar

StartChar: whitesquare
Encoding: 9633 9633 577
Width: 1075
Flags: W
HStem: 84 224<187 734> 949 192<187 734>
VStem: 0 187<308 949> 734 188<308 949>
LayerCount: 2
Fore
SplineSet
0 1331 m 1
 1075 1331 l 1
 1075 98 l 1
 0 98 l 1
 0 1331 l 1
219 1107 m 1
 219 360 l 1
 856 360 l 1
 856 1107 l 1
 219 1107 l 1
EndSplineSet
EndChar

StartChar: blacksmallsquare
Encoding: 9642 9642 578
Width: 1075
Flags: W
HStem: 400.365 472.271<224.175 696.825>
VStem: 224.175 472.65<400.365 872.635>
LayerCount: 2
Fore
SplineSet
813 467 m 5
 262 467 l 5
 262 1018 l 5
 813 1018 l 5
 813 467 l 5
EndSplineSet
EndChar

StartChar: whitesmallsquare
Encoding: 9643 9643 579
Width: 1075
Flags: W
HStem: 400.365 113.926<341.925 579.075> 758.709 113.926<341.925 579.075>
VStem: 224.175 117.75<514.291 758.709> 579.075 117.75<514.291 758.709>
LayerCount: 2
Fore
SplineSet
813 467 m 1
 262 467 l 1
 262 1018 l 1
 813 1018 l 1
 813 467 l 1
676 600 m 1
 676 885 l 1
 399 885 l 1
 399 600 l 1
 676 600 l 1
EndSplineSet
EndChar

StartChar: blackrectangle
Encoding: 9644 9644 580
Width: 1075
Flags: W
HStem: 395 231<0 922>
LayerCount: 2
Fore
SplineSet
0 730 m 1
 1075 730 l 5
 1075 461 l 5
 0 461 l 1
 0 730 l 1
EndSplineSet
EndChar

StartChar: triagup
Encoding: 9650 9650 581
Width: 1075
Flags: W
LayerCount: 2
Fore
SplineSet
0 96 m 5
 537 1103 l 5
 1075 96 l 5
 0 96 l 5
EndSplineSet
EndChar

StartChar: triagrt
Encoding: 9658 9658 582
Width: 1075
Flags: W
LayerCount: 2
Fore
SplineSet
74 -73 m 1
 72 1041 l 1
 1004 465 l 1
 74 -73 l 1
EndSplineSet
EndChar

StartChar: triagdn
Encoding: 9660 9660 583
Width: 1075
Flags: W
LayerCount: 2
Fore
SplineSet
1075 1103 m 5
 539 96 l 5
 0 1103 l 5
 1075 1103 l 5
EndSplineSet
EndChar

StartChar: triaglf
Encoding: 9668 9668 584
Width: 1075
Flags: W
LayerCount: 2
Fore
SplineSet
73 465 m 5
 1003 1042 l 5
 1003 -73 l 5
 73 465 l 5
EndSplineSet
EndChar

StartChar: lozenge
Encoding: 9674 9674 585
Width: 1075
Flags: W
DStem2: 261 710 89 709 0.489251 -0.872143<0 400.76> 89 709 261 710 0.486669 0.873586<84.5807 485.336> 501 1287 458 1059 0.499203 -0.866485<176.093 577.838> 458 361 501 135 0.501808 0.864979<0 401.737>
LayerCount: 2
Fore
SplineSet
585 1538 m 1
 973 864 l 1
 585 121 l 1
 480 121 l 1
 104 864 l 1
 480 1538 l 1
 585 1538 l 1
535 1235 m 1
 305 866 l 1
 535 421 l 1
 767 866 l 1
 535 1235 l 1
EndSplineSet
EndChar

StartChar: whitecircle
Encoding: 9675 9675 586
Width: 1075
Flags: W
HStem: 221 150<334.35 586.595> 784 150<333.91 587.132>
VStem: 104 150<452.439 703.668> 668 150<451.815 701.975>
LayerCount: 2
Fore
SplineSet
538 1127 m 0
 774 1127 954 898 954 674 c 0
 954 440 768 221 538 221 c 0
 301 221 122 445 122 674 c 0
 122 890 293 1127 538 1127 c 0
538 915 m 0
 398 915 297 803 297 674 c 0
 297 529 414 433 538 433 c 256
 673 433 779 540 779 674 c 0
 779 797 681 915 538 915 c 0
EndSplineSet
EndChar

StartChar: blackcircle
Encoding: 9679 9679 587
Width: 1075
Flags: W
HStem: 221 713<292.824 631.094>
VStem: 104 714<407.906 745.646>
LayerCount: 2
Fore
SplineSet
538 1127 m 0
 774 1127 954 898 954 674 c 0
 954 440 768 221 538 221 c 0
 301 221 122 445 122 674 c 0
 122 890 293 1127 538 1127 c 0
EndSplineSet
EndChar

StartChar: bulletinverse
Encoding: 9688 9688 588
Width: 1075
Flags: W
HStem: 93.0996 233.28<349.727 573.114> 653.62 233.28<348.385 573.674>
VStem: 63 234<377.921 601.629> 624 233<379.634 603.318>
LayerCount: 2
Fore
SplineSet
74 72 m 1
 74 1072 l 1
 1000 1072 l 1
 1000 72 l 1
 74 72 l 1
537 763 m 256
 434 763 347 682 347 572 c 0
 347 460 438 381 537 381 c 0
 642 381 728 465 728 572 c 0
 728 678 644 763 537 763 c 256
EndSplineSet
EndChar

StartChar: whitecircleinverse
Encoding: 9689 9689 589
Width: 1075
Flags: W
HStem: 110 111<289.809 635.959> 371 413<335.607 588.433> 934 111<293.797 632.866>
VStem: 0 105<406.695 749.753> 255 413<448.029 702.431> 818 104<402.264 747.094>
LayerCount: 2
Fore
SplineSet
0 91 m 1
 0 1219 l 1
 1075 1219 l 1
 1075 91 l 1
 0 91 l 1
538 1127 m 0
 315 1127 123 910 123 673 c 0
 123 442 305 221 538 221 c 0
 761 221 954 431 954 673 c 0
 954 903 772 1127 538 1127 c 0
539 915 m 0
 673 915 779 806 779 673 c 0
 779 536 670 433 539 433 c 0
 407 433 298 536 298 673 c 0
 298 811 410 915 539 915 c 0
EndSplineSet
EndChar

StartChar: whitebullet
Encoding: 9702 9702 590
Width: 1075
Flags: W
HStem: 406 113<368.896 552.757> 754 113<368.685 552.223>
VStem: 230 113<545.062 727.979> 579 112<546.84 727.446>
LayerCount: 2
Fore
SplineSet
806 743 m 0
 806 582 677 474 537 474 c 256
 389 474 269 592 269 743 c 0
 269 892 388 1011 537 1011 c 0
 690 1011 806 891 806 743 c 0
676 743 m 0
 676 822 611 880 537 880 c 256
 466 880 400 825 400 743 c 0
 400 660 466 606 537 606 c 256
 614 606 676 666 676 743 c 0
EndSplineSet
EndChar

StartChar: smileface
Encoding: 9786 9786 591
Width: 1075
Flags: W
HStem: 124 126<298.564 622.839> 338 54<371.617 548.201> 608 114<255.697 366.296 555.643 665.674> 919 126<293.127 624.394>
VStem: -0 127<417.754 749.129> 254 114<609.589 720.417> 554 113<609.487 720.519> 795 126<419.528 752.828>
LayerCount: 2
Fore
SplineSet
1074 681 m 0
 1074 382 839 108 537 108 c 0
 236 108 0 384 0 681 c 0
 0 992 248 1219 537 1219 c 0
 839 1219 1074 981 1074 681 c 0
927 681 m 0
 927 899 757 1109 537 1109 c 0
 318 1109 149 898 149 681 c 0
 149 455 329 255 537 255 c 0
 749 255 927 458 927 681 c 0
430 777 m 256
 430 740 400 709 362 709 c 256
 325 709 297 742 297 777 c 256
 297 810 323 842 362 842 c 256
 402 842 430 811 430 777 c 256
778 777 m 256
 778 740 751 709 714 709 c 256
 674 709 646 740 646 777 c 256
 646 812 673 842 714 842 c 256
 751 842 778 812 778 777 c 256
327 535 m 1
 372 560 l 1
 410 493 465 458 537 458 c 256
 610 458 665 493 702 560 c 1
 748 535 l 1
 700 441 629 395 537 395 c 0
 424 395 362 468 327 535 c 1
EndSplineSet
EndChar

StartChar: invsmileface
Encoding: 9787 9787 592
Width: 1075
Flags: W
HStem: 124 171<330.15 591.942> 738 307<261.901 501.505 421.958 661.515>
VStem: -0 226<494.273 736.313> 343 236<622.894 736.048> 695 226<493.852 734.781>
LayerCount: 2
Fore
SplineSet
1074 681 m 0
 1074 382 839 108 537 108 c 0
 236 108 0 384 0 681 c 0
 0 992 248 1219 537 1219 c 0
 839 1219 1074 981 1074 681 c 0
400 793 m 256
 400 828 371 861 332 861 c 256
 292 861 264 827 264 793 c 256
 264 758 293 725 332 725 c 256
 370 725 400 756 400 793 c 256
811 793 m 256
 811 829 784 861 744 861 c 256
 704 861 676 829 676 793 c 256
 676 756 705 725 744 725 c 256
 783 725 811 756 811 793 c 256
290 509 m 1
 330 431 404 344 537 344 c 0
 671 344 743 430 785 509 c 1
 732 539 l 1
 687 459 623 418 537 418 c 256
 452 418 388 459 343 539 c 1
 290 509 l 1
EndSplineSet
EndChar

StartChar: compass
Encoding: 9788 9788 593
Width: 1075
Flags: W
HStem: 448 46<0 162 760 922> 722 47<486 563.283>
VStem: 162 48<494 578.675> 436 50<10 173 769 932> 710 50<363.517 448 492 580.419>
DStem2: 125 839 95 802 0.707613 -0.7066<4.91579 197.993 796.168 991.33> 95 139 127 106 0.708621 0.705589<0 194.565 792.769 988.636>
LayerCount: 2
Fore
SplineSet
509 1124 m 1
 567 1124 l 1
 567 934 l 1
 648 934 707 898 763 855 c 1
 927 1015 l 1
 966 975 l 1
 805 813 l 1
 856 746 887 641 887 574 c 1
 1075 574 l 1
 1075 523 l 1
 887 523 l 1
 878 453 852 348 806 290 c 1
 966 123 l 1
 925 86 l 1
 763 245 l 1
 698 196 649 174 567 165 c 1
 567 12 l 1
 509 12 l 1
 509 165 l 1
 435 175 371 202 314 243 c 1
 149 87 l 1
 111 125 l 1
 271 287 l 1
 224 347 198 449 189 523 c 1
 0 523 l 1
 0 576 l 1
 189 576 l 1
 189 651 223 754 270 811 c 1
 111 973 l 1
 146 1016 l 1
 313 856 l 1
 379 902 446 927 509 934 c 1
 509 1124 l 1
537 842 m 256
 369 842 245 708 245 550 c 0
 245 388 371 258 537 258 c 256
 705 258 828 391 828 550 c 0
 828 713 699 842 537 842 c 256
EndSplineSet
EndChar

StartChar: female
Encoding: 9792 9792 594
Width: 1075
Flags: W
HStem: 343 69<175 426 499 747> 577 81<346.207 426 499 579.178> 1069 84<343.449 581.435>
VStem: 183 79<741.948 982.372> 426 73<80 343 412 577> 661 80<741.559 986.112>
LayerCount: 2
Fore
SplineSet
497 673 m 1
 335 697 214 871 214 1043 c 0
 214 1247 370 1382 539 1382 c 0
 709 1382 864 1245 864 1043 c 0
 864 859 733 693 582 673 c 1
 582 481 l 1
 871 481 l 1
 871 400 l 1
 582 400 l 1
 582 56 l 1
 497 56 l 1
 497 400 l 1
 205 400 l 1
 205 481 l 1
 497 481 l 1
 497 673 l 1
538 1247 m 0
 410 1247 306 1142 306 1008 c 256
 306 871 411 768 538 768 c 256
 663 768 771 868 771 1008 c 256
 771 1147 664 1247 538 1247 c 0
EndSplineSet
EndChar

StartChar: male
Encoding: 9794 9794 595
Width: 1075
Flags: W
HStem: 250 75<211.388 439.888> 750 75<207.521 441.935>
VStem: 42 76<417.863 660.889> 531 75<414.96 660.222>
DStem2: 474 782 525 740 0.693164 0.72078<5.0786 360.117>
LayerCount: 2
Fore
SplineSet
553 950 m 1
 846 1217 l 1
 785 1284 602 1348 602 1354 c 1
 627 1382 l 9
 1008 1382 l 0
 1027 1365 l 0
 1027 962 l 273
 1000 938 l 1
 994 938 927 1102 899 1162 c 1
 613 901 l 1
 676 838 707 726 707 639 c 0
 707 441 558 255 377 255 c 256
 189 255 49 445 49 624 c 0
 49 810 192 1000 379 1000 c 0
 433 1000 490 983 553 950 c 1
379 875 m 0
 244 875 138 767 138 628 c 256
 138 484 252 379 379 379 c 256
 503 379 620 476 620 628 c 0
 620 774 507 875 379 875 c 0
EndSplineSet
EndChar

StartChar: spade
Encoding: 9824 9824 596
Width: 1075
Flags: W
HStem: 152 28<168 272.283 656.397 754>
VStem: 456 14<417.894 503>
LayerCount: 2
Fore
SplineSet
538 1259 m 1
 621 915 964 860 964 615 c 0
 964 500 876 419 772 419 c 0
 681 419 607 475 548 587 c 1
 548 285 715 173 880 173 c 1
 885 140 l 1
 189 140 l 1
 196 173 l 1
 466 173 532 390 532 587 c 1
 477 468 395 419 304 419 c 0
 199 419 111 504 111 611 c 0
 111 870 459 898 538 1259 c 1
EndSplineSet
EndChar

StartChar: club
Encoding: 9827 9827 597
Width: 1075
Flags: W
HStem: 151 25<150 211.374 718.551 773> 355 416<78.7852 299.617 619.973 842.203>
VStem: 252 415<744.613 993.475> 453 15<445.978 533>
LayerCount: 2
Fore
SplineSet
909 139 m 1xd0
 170 139 l 1
 175 168 l 1
 199 173 529 238 529 581 c 0
 529 590 529 603 529 622 c 1xd0
 463 488 356 414 242 414 c 0
 118 414 0 507 0 658 c 0
 0 817 121 937 209 937 c 0
 245 937 293 922 353 891 c 1
 304 973 294 1002 294 1051 c 0
 294 1180 392 1249 536 1249 c 0
 676 1249 778 1182 778 1053 c 0xe0
 778 1001 758 947 718 891 c 1
 800 930 812 937 860 937 c 0
 974 937 1075 802 1075 662 c 0
 1075 518 965 414 836 414 c 0
 655 414 564 593 546 622 c 1
 546 285 734 202 902 168 c 1
 909 139 l 1xd0
EndSplineSet
EndChar

StartChar: heart
Encoding: 9829 9829 598
Width: 1075
Flags: W
LayerCount: 2
Fore
SplineSet
540 105 m 1
 445 459 93 755 93 989 c 0
 93 1116 186 1165 304 1165 c 0
 398 1165 488 1150 540 999 c 1
 582 1150 680 1166 771 1166 c 0
 895 1166 982 1107 982 1000 c 0
 982 728 632 459 540 105 c 1
EndSplineSet
EndChar

StartChar: diamond
Encoding: 9830 9830 599
Width: 1075
Flags: W
LayerCount: 2
Fore
SplineSet
537 1246 m 1
 624 1039 788 833 939 700 c 1
 812 602 635 329 537 115 c 1
 458 294 266 602 138 700 c 1
 291 833 424 1008 537 1246 c 1
EndSplineSet
EndChar

StartChar: musicalnote
Encoding: 9834 9834 600
Width: 1075
Flags: W
HStem: 135.78 236.52<235.114 404.073> 1026.22 20G<419 480>
VStem: 183 297<213.517 321.525> 419 61<357.72 767.58 964.41 1046.22> 626 67<401.088 670.848>
LayerCount: 2
Fore
SplineSet
489 418 m 1xd8
 489 1220 l 1
 560 1220 l 1
 560 1162 l 1
 706 982 l 2
 759 907 808 764 808 644 c 0
 808 547 778 462 719 388 c 1
 674 388 l 1
 712 470 730 549 730 623 c 256
 730 786 633 921 560 933 c 1
 560 418 l 2xd8
 560 301 460 122 322 122 c 0
 254 122 214 154 214 215 c 0xe8
 214 309 295 435 404 435 c 0
 429 435 457 430 489 418 c 1xd8
EndSplineSet
EndChar

StartChar: musicalnotedbl
Encoding: 9835 9835 601
Width: 1075
Flags: W
HStem: 71 235<87.9738 255.579> 147 235<593.354 761.757> 1025 20G<760.793 839>
VStem: 272 61<292 611 714 807> 779 60<368 732 835 928>
DStem2: 272 900 333 807 0.968822 0.247759<36.0566 498.13> 333 714 333 611 0.965113 0.261835<0 435.153>
LayerCount: 2
Fore
SplineSet
979 430 m 2xb8
 979 261 863 135 742 135 c 0
 651 135 634 191 634 228 c 0
 634 321 714 446 824 446 c 0x78
 855 446 883 439 909 430 c 1
 909 891 l 1
 389 713 l 1
 389 304 l 2
 389 135 273 46 151 46 c 0
 60 46 42 102 42 139 c 0
 42 231 123 357 234 357 c 0
 265 357 295 314 318 304 c 1
 318 1087 l 1
 979 1219 l 1
 979 430 l 2xb8
389 833 m 1
 909 974 l 1
 909 1082 l 1
 389 941 l 1
 389 833 l 1
EndSplineSet
EndChar

StartChar: arrowboth
Encoding: 8596 8596 602
Width: 1075
VWidth: 1708
Flags: W
LayerCount: 2
Fore
SplineSet
448 992 m 29
 127 600 l 29
 448 208 l 29
77 -99 m 5
 77 1256 l 5
 999 1256 l 5
 999 -99 l 5
 77 -99 l 5
628 992 m 29
 949 600 l 29
 628 208 l 29
949 600 m 29
 127 600 l 29
EndSplineSet
EndChar

StartChar: arrowbothv
Encoding: 8597 8597 603
Width: 1075
VWidth: 1708
Flags: W
LayerCount: 2
Fore
SplineSet
898 752 m 29
 538 1091 l 29
 178 752 l 29
77 55 m 1
 77 1145 l 1
 999 1145 l 1
 999 55 l 1
 77 55 l 1
898 510 m 25
 538 107 l 25
 178 510 l 25
538 107 m 25
 538 1091 l 29
EndSplineSet
EndChar

StartChar: updownarrowbar
Encoding: 8616 8616 604
Width: 1075
VWidth: 1708
Flags: W
LayerCount: 2
Fore
SplineSet
127 26 m 25
 949 26 l 25
898 752 m 25
 538 1091 l 25
 178 752 l 25
77 -443 m 1
 77 1145 l 1
 999 1145 l 1
 999 -443 l 1
 77 -443 l 1
898 510 m 25
 538 107 l 25
 178 510 l 25
538 107 m 25
 538 1091 l 25
EndSplineSet
EndChar

StartChar: nsuperior
Encoding: 8319 8319 605
Width: 1075
VWidth: 1947
Flags: MW
LayerCount: 2
Fore
SplineSet
800 544 m 29
 800 1135 l 22
 800 1287 724 1349 547 1349 c 14
 529 1349 l 22
 374 1349 276 1140 276 1026 c 14
 276 972 l 29
276 1424 m 29
 276 544 l 29
EndSplineSet
EndChar

StartChar: radical
Encoding: 8730 8730 606
Width: 1075
VWidth: 1708
Flags: MW
LayerCount: 2
Fore
SplineSet
0 -25 m 5
 0 1633 l 5
 1075 1633 l 5
 1075 -25 l 5
 0 -25 l 5
985 1755 m 29
 588 5 l 29
 254 995 l 29
 48 995 l 29
EndSplineSet
EndChar

StartChar: intersection
Encoding: 8745 8745 608
Width: 1075
Flags: MW
LayerCount: 2
Fore
SplineSet
182 0 m 29
 182 1063 l 22
 182 1215 297 1365 529 1365 c 14
 547 1365 l 22
 704 1365 817 1218 817 1063 c 14
 817 0 l 29
EndSplineSet
EndChar

StartChar: infinity
Encoding: 8734 8734 609
Width: 1075
Flags: MW
LayerCount: 2
Fore
SplineSet
763 843 m 7
 908.003 843 979 720.176 979 618 c 7
 979 521.999 902 392 763 392 c 7
 637.496 392 538 511.995 538 618 c 7
 538 717 646.5 843 763 843 c 7
306 843 m 7
 163.996 843 96 718.679 96 618 c 7
 96 526.5 159.986 392 306 392 c 7
 460.117 392 538 511.971 538 618 c 7
 538 717 460.003 843 306 843 c 7
EndSplineSet
EndChar

StartChar: almostequal
Encoding: 8776 8776 610
Width: 1075
VWidth: 1947
Flags: MW
LayerCount: 2
Fore
SplineSet
139 788 m 21
 170 896 252 965 344 965 c 14
 359 965 l 22
 432 965 467.521 947.637 494 921.3 c 6
 587 828.8 l 6
 611.729 804.204 666 789 717 789 c 14
 732 789 l 22
 840 789 936 960 937 965 c 13
139 340 m 21
 170 448 255 517 344 517 c 14
 359 517 l 22
 438 517 467.521 499.637 494 473.3 c 6
 587 380.8 l 6
 611.729 356.204 672 341 717 341 c 14
 732 341 l 22
 843 341 933 501 937 517 c 13
EndSplineSet
EndChar

StartChar: equivalence
Encoding: 8801 8801 611
Width: 1075
Flags: W
LayerCount: 2
Fore
SplineSet
50 920 m 25
 1025 920 l 25
50 600 m 25
 1025 600 l 25
50 278 m 25
 1025 278 l 25
EndSplineSet
EndChar

StartChar: lessequal
Encoding: 8804 8804 612
Width: 1075
VWidth: 1708
Flags: MW
LayerCount: 2
Fore
SplineSet
-121 669 m 29
 1055 132 l 29
90 1612 m 5
 985 1612 l 5
 985 -150 l 5
 90 -150 l 5
 90 1612 l 5
1055 1228 m 29
 142 859 l 29
 1055 457 l 29
EndSplineSet
EndChar

StartChar: greaterequal
Encoding: 8805 8805 613
Width: 1075
VWidth: 1708
Flags: MW
LayerCount: 2
Fore
SplineSet
1276 669 m 29
 20 132 l 29
90 1612 m 5
 985 1612 l 5
 985 -150 l 5
 90 -150 l 5
 90 1612 l 5
20 1228 m 29
 937 859 l 29
 20 457 l 29
EndSplineSet
EndChar

StartChar: revlogicalnot
Encoding: 8976 8976 614
Width: 1075
VWidth: 1708
Flags: MW
LayerCount: 2
Fore
SplineSet
1025 600 m 29
 182 600 l 29
 182 214 l 29
EndSplineSet
EndChar

StartChar: integraltp
Encoding: 8992 8992 615
Width: 1075
Flags: MW
LayerCount: 2
Fore
SplineSet
538 -615 m 25
 538 1414 l 18
 538 1489.5 588.5 1548 677 1548 c 2
 687 1548 l 2
 770 1548 817 1489.5 817 1414 c 9
 817 1340 l 25
EndSplineSet
EndChar

StartChar: integralbt
Encoding: 8993 8993 616
Width: 1075
Flags: MW
LayerCount: 2
Fore
SplineSet
538 1775 m 29
 538 -324 l 18
 538 -399.5 487.5 -458 399 -458 c 2
 389 -458 l 2
 229 -458 182 -399.5 182 -324 c 9
 182 -218 l 25
EndSplineSet
EndChar

StartChar: exclam
Encoding: -1 33 617
Width: 922
Flags: MW
LayerCount: 2
Fore
SplineSet
635 29 m 0xe0
 635 -23 595 -68 537 -68 c 0
 482 -68 440 -24 440 29 c 0
 440 80 479 126 537 126 c 0
 594 126 635 82 635 29 c 0xe0
538 1418 m 3
 581 1418 630 1373 630 1295 c 0
 630 1294 630 1292 630 1290 c 2
 608 384 l 1
 471 384 l 1
 448 1291 l 2
 448 1293 448 1294 448 1296 c 0
 448 1369 495 1418 538 1418 c 3
EndSplineSet
EndChar
